<?xml version="1.0" encoding="utf-8"?>
<!-- Generator: Adobe Illustrator 27.5.0, SVG Export Plug-In . SVG Version: 6.00 Build 0)  -->
<svg version="1.1" id="Layer_1" xmlns="http://www.w3.org/2000/svg" xmlns:xlink="http://www.w3.org/1999/xlink" x="0px" y="0px"
	 viewBox="0 0 3000 2000" style="enable-background:new 0 0 3000 2000;" xml:space="preserve">
<rect style="fill:#FFFFFF;" width="3000" height="2000"/>
<ellipse style="fill:#F6F9FF;" cx="1458.704" cy="1734.588" rx="1214.098" ry="64.128"/>
<path style="fill:#F6F9FF;" d="M688.316,1653.769c-117.087,26.486-248.763,11.875-342.111-63.604
	c-93.346-75.478-133.97-219.302-71.912-322.06c31.104-51.504,83.504-87.907,111.449-141.359
	c33.857-64.759,7.76-126.367-15.881-190.361c-23.498-63.609-40.647-131.85-30.579-198.91
	c18.005-119.924,122.28-179.395,237.009-173.634c115.249,5.787,229.615,71.961,345.857,39.333
	c111.194-31.211,202.641-143.039,289.212-214.518c207.782-171.56,512.333-263.372,722.937-42.877
	c40.329,42.223,78.656,87.131,126.144,121.103c122.489,87.625,282.296,23.853,414.374,89.836
	c91.813,45.868,168.593,123.047,217.495,212.956c59.087,108.634,87.438,251.944,37.003,368.597
	c-22.593,52.255-65.321,91.433-92.597,140.77c-30.841,55.785-28.173,113.31-36.289,174.868
	c-21.007,159.333-184.214,193.183-320.371,195.372c-235.086,3.779-472.558-24.038-707.157-37.607
	C1277.934,1594.613,978.315,1588.17,688.316,1653.769z"/>
<g>
	<path style="fill:#D4DFFF;" d="M658.852,1577.436c-43.441-9.886-88.295-20.536-123.82-47.421
		c-79.85-60.43-87.127-180.659-155.788-253.552c75.34,7.756,142.556,39.215,194.489,94.344
		C625.667,1425.935,655.603,1501.768,658.852,1577.436z"/>
	<path style="fill:#D4DFFF;" d="M613.053,1590.432c-39.569-28.378-88.069-42.478-136.586-46.603
		c-48.518-4.125-97.352,1.243-145.439,8.896c31.715,28.301,71.068,56.946,110.831,71.969
		C498.298,1646.017,566.199,1628.443,613.053,1590.432z"/>
	<path style="fill:#D4DFFF;" d="M694.785,1546.247c-29.635-32.557-34.925-80.306-33.377-124.303
		c2.226-63.264,15.495-125.683,32.693-186.605c20.234,35.028,36.293,71.275,49.065,109.658
		c9.128,27.432,16.319,55.953,15.718,84.858c-0.602,28.905-9.678,58.456-29.539,79.464
		C718.927,1520.339,702.682,1533.3,694.785,1546.247z"/>
	<path style="fill:#6880E4;" d="M717.664,1671.46c-0.333,0-0.659-0.166-0.849-0.47c-6.547-10.463-12.6-20.178-18.268-29.275
		c-54.763-87.901-73.211-117.513-152.916-204.749c-51.654-56.536-110.849-109.921-167.052-159.755
		c-0.413-0.366-0.451-0.998-0.085-1.411c0.366-0.414,0.998-0.452,1.412-0.085c56.243,49.869,115.482,103.294,167.201,159.901
		c79.829,87.373,98.301,117.023,153.137,205.041c5.667,9.096,11.719,18.811,18.266,29.272c0.293,0.468,0.151,1.085-0.317,1.378
		C718.029,1671.411,717.845,1671.46,717.664,1671.46z"/>
	<path style="fill:#6880E4;" d="M699.093,1640.164c-0.517,0-0.955-0.398-0.996-0.921c-7.344-92.936-13.739-183.588-11.364-270.94
		c1.179-43.352,4.575-87.307,7.86-129.814c0.042-0.551,0.518-0.968,1.074-0.92c0.551,0.043,0.962,0.523,0.92,1.074
		c-3.283,42.483-6.677,86.412-7.855,129.715c-2.372,87.254,4.019,177.849,11.359,270.728c0.044,0.551-0.368,1.032-0.918,1.076
		C699.146,1640.163,699.119,1640.164,699.093,1640.164z"/>
	<path style="fill:#6880E4;" d="M644.599,1594.701c-43.571,0-87.06-6.714-129.346-13.241l-180.212-27.818
		c-0.546-0.084-0.92-0.595-0.836-1.141c0.085-0.545,0.596-0.919,1.141-0.836l180.212,27.818
		c50.163,7.744,102.036,15.753,153.6,12.457c0.553-0.038,1.027,0.384,1.062,0.934c0.035,0.551-0.383,1.026-0.934,1.062
		C661.062,1594.462,652.826,1594.701,644.599,1594.701z"/>
</g>
<g>
	<g>
		<path style="fill:#1C056D;" d="M748.23,590.135c0.089-4.821,4.197-8.691,9.277-8.736c126.144-1.121,1520.844-22.428,1524.5-5.076
			c3.83,18.176-1.702,1027.167-1.702,1027.167s-1528.104,29.081-1539.594,10.906C729.846,1597.207,746.4,688.742,748.23,590.135z"/>
		<g>
			<defs>
				<path id="XMLID_565_" d="M615.374,1610.732c0,0,1743.815-21.612,1784.967-8.465c0,0,5.935,128.713,1.973,128.713
					c-3.961,0-1789.151,6.287-1786.941,0C617.585,1724.693,615.374,1610.732,615.374,1610.732z"/>
			</defs>
			<use xlink:href="#XMLID_565_"  style="overflow:visible;fill:#8C9EF4;"/>
			<clipPath id="XMLID_00000021104458017371359500000004989457226711212172_">
				<use xlink:href="#XMLID_565_"  style="overflow:visible;"/>
			</clipPath>
			
				<rect x="670.724" y="1598.025" style="clip-path:url(#XMLID_00000021104458017371359500000004989457226711212172_);fill:#6880E4;" width="39.009" height="144.011"/>
			
				<rect x="746.759" y="1598.025" style="clip-path:url(#XMLID_00000021104458017371359500000004989457226711212172_);fill:#6880E4;" width="11.24" height="144.011"/>
		</g>
		<g>
			<defs>
				<path id="XMLID_564_" d="M783.583,632.186c0,0-10.049,944.882,0,944.882c10.049,0,1453.719-4.408,1455.923-13.224
					s-4.408-938.936-13.225-941.14C2217.466,620.499,783.583,632.186,783.583,632.186z"/>
			</defs>
			<use xlink:href="#XMLID_564_"  style="overflow:visible;fill:#8C9EF4;"/>
			<clipPath id="XMLID_00000100341088430655620730000009044346078448386958_">
				<use xlink:href="#XMLID_564_"  style="overflow:visible;"/>
			</clipPath>
			<polygon style="opacity:0.2;clip-path:url(#XMLID_00000100341088430655620730000009044346078448386958_);fill:#D4DFFF;" points="
				1016.755,614.914 741.173,1022.677 757.551,1423.552 1174.29,957.314 757.998,1598.025 1246.319,1598.025 1488.124,1225.919 
				1331.98,1598.025 1891.806,1598.025 2169.363,1094.958 1965.056,1577.068 2266.278,1577.068 2266.278,622.427 2076.566,622.427 
				1729.317,1308.302 2030.539,614.914 1593.103,625.952 1232.688,1225.919 1569.55,626.122 			"/>
		</g>
		<path style="fill:#FFFFFF;" d="M1621.334,1635.286h-223.617c-20.578,0-37.26-16.682-37.26-37.26v0h298.138v0
			C1658.594,1618.603,1641.912,1635.286,1621.334,1635.286z"/>
	</g>
	<g>
		<circle style="fill:#8C9EF4;" cx="1488.124" cy="603.038" r="11.876"/>
		<circle style="fill:#8C9EF4;" cx="1530.926" cy="603.038" r="11.876"/>
	</g>
	<g>
		<path style="fill:#FFFFFF;" d="M1891.806,1143.405c-56.378,0-102.245-45.867-102.245-102.245
			c0-56.378,45.867-102.245,102.245-102.245c56.378,0,102.245,45.867,102.245,102.245
			C1994.051,1097.537,1948.184,1143.405,1891.806,1143.405z M2070.217,1013.226h-27.856c-3.875-21.135-12.141-41.089-24.345-58.774
			l19.697-19.697c2.479-2.479,2.479-6.499,0-8.979l-30.525-30.525c-2.479-2.479-6.499-2.479-8.978,0l-19.697,19.697
			c-17.685-12.205-37.639-20.47-58.774-24.345v-27.855c0-3.506-2.842-6.349-6.349-6.349h-43.168c-3.506,0-6.349,2.842-6.349,6.349
			v27.855c-21.134,3.875-41.089,12.141-58.774,24.345l-19.697-19.697c-2.479-2.479-6.499-2.479-8.979,0l-30.525,30.525
			c-2.479,2.479-2.479,6.499,0,8.979l19.697,19.697c-12.204,17.685-20.47,37.639-24.345,58.774h-27.855
			c-3.507,0-6.349,2.843-6.349,6.349v43.169c0,3.506,2.843,6.349,6.349,6.349h27.855c3.875,21.135,12.141,41.089,24.345,58.774
			l-19.697,19.697c-2.479,2.479-2.479,6.499,0,8.979l30.525,30.525c2.479,2.479,6.499,2.479,8.979,0l19.697-19.697
			c17.685,12.204,37.639,20.47,58.774,24.345v27.855c0,3.506,2.843,6.349,6.349,6.349h43.168c3.506,0,6.349-2.842,6.349-6.349
			v-27.855c21.135-3.875,41.089-12.141,58.774-24.345l19.697,19.697c2.479,2.479,6.499,2.479,8.978,0l30.525-30.525
			c2.479-2.479,2.479-6.499,0-8.979l-19.697-19.697c12.204-17.685,20.47-37.639,24.345-58.774h27.856
			c3.506,0,6.349-2.842,6.349-6.349v-43.169C2076.566,1016.069,2073.724,1013.226,2070.217,1013.226z"/>
	</g>
	<path style="fill:#6880E4;" d="M1456.158,1099.173c0,0,605.967-9.484,615.548,0s9.581,393.509,0,395.057s-608.363,9.291-615.548,0
		S1456.158,1099.173,1456.158,1099.173z"/>
	<path style="opacity:0.3;fill:#1B3D9E;" d="M1813.218,864.93c-1.493-26.881-3.188-44.428-5.106-48.267
		c0,0-791.115-3.128-897.549-0.32c-6.723,0.177-12.117,5.586-12.279,12.31c-0.2,8.311-0.374,20.704-0.511,36.277
		c-1.269,144.218,0.597,562.546,13.432,564.732c87.003,14.819,912.271-1.521,912.271-1.521S1821.287,1010.211,1813.218,864.93z"/>
	<g>
		
			<ellipse transform="matrix(0.2311 -0.9729 0.9729 0.2311 -689.9518 2060.0278)" style="fill:#D4DFFF;" cx="958.357" cy="1466.531" rx="13.632" ry="13.632"/>
		
			<ellipse transform="matrix(0.7071 -0.7071 0.7071 0.7071 -735.2008 1158.13)" style="fill:#D4DFFF;" cx="1030.386" cy="1466.531" rx="13.632" ry="13.632"/>
		
			<ellipse transform="matrix(0.7071 -0.7071 0.7071 0.7071 -714.2575 1208.9985)" style="fill:#D4DFFF;" cx="1102.262" cy="1466.684" rx="13.632" ry="13.632"/>
		
			<ellipse transform="matrix(0.9239 -0.3827 0.3827 0.9239 -471.8878 561.0254)" style="fill:#D4DFFF;" cx="1174.29" cy="1466.684" rx="13.632" ry="13.632"/>
		
			<ellipse transform="matrix(0.2298 -0.9732 0.9732 0.2298 -467.4746 2342.6895)" style="fill:#D4DFFF;" cx="1246.319" cy="1466.684" rx="13.632" ry="13.632"/>
		
			<ellipse transform="matrix(0.7071 -0.7071 0.7071 0.7071 -650.9672 1361.7948)" style="fill:#D4DFFF;" cx="1318.348" cy="1466.684" rx="13.632" ry="13.632"/>
		
			<ellipse transform="matrix(0.9239 -0.3827 0.3827 0.9239 -455.4393 643.718)" style="fill:#D4DFFF;" cx="1390.377" cy="1466.684" rx="13.632" ry="13.632"/>
	</g>
	<g>
		<g>
			<g>
				<defs>
					<path id="XMLID_563_" d="M934.171,1404.784c87.003,14.819,912.271-1.521,912.271-1.521s-2.188-417.93-10.258-563.211H920.739
						C919.47,984.269,921.336,1402.598,934.171,1404.784z"/>
				</defs>
				<use xlink:href="#XMLID_563_"  style="overflow:visible;fill:#D4DFFF;"/>
				<clipPath id="XMLID_00000071523026492809858910000009127783284321158077_">
					<use xlink:href="#XMLID_563_"  style="overflow:visible;"/>
				</clipPath>
				<path style="clip-path:url(#XMLID_00000071523026492809858910000009127783284321158077_);fill:#F6F9FF;" d="M969.898,902.629
					c0,0,828.914-30.147,832.058-8.914c3.144,21.234,0,38.027,0,38.027s-833.004,24.893-832.058,15.957
					C970.844,938.763,969.898,902.629,969.898,902.629z"/>
				<path style="clip-path:url(#XMLID_00000071523026492809858910000009127783284321158077_);fill:#F6F9FF;" d="M969.898,1003.102
					c0,0,829.914-12.041,832.058-5.858c2.144,6.182,12.395,52.941,0,48.428c-12.395-4.513-830.378,28.078-832.058,16.41
					C968.218,1050.414,969.898,1003.102,969.898,1003.102z"/>
				<path style="clip-path:url(#XMLID_00000071523026492809858910000009127783284321158077_);fill:#F6F9FF;" d="M971.989,1125.524
					c0,0,836.833-1.461,835.05,3.43s5.503,46.993,0,50.735c-5.503,3.742-835.271,11.603-835.05,3.954
					C972.21,1175.994,971.989,1125.524,971.989,1125.524z"/>
				<path style="clip-path:url(#XMLID_00000071523026492809858910000009127783284321158077_);fill:#F6F9FF;" d="M976.539,1241.079
					c0,0,825.969-8.374,825.416,0c-0.553,8.374,0.604,59.191-6.337,55.763c-6.941-3.427-818.344,9.297-819.096,0.972
					C975.624,1287.861,976.539,1241.079,976.539,1241.079z"/>
			</g>
			<path style="fill:#6880E4;" d="M933.529,791.464c-6.723,0.178-12.117,5.586-12.279,12.31c-0.2,8.311-0.374,20.704-0.511,36.278
				h915.445c-1.493-26.881-3.187-44.428-5.106-48.267C1831.078,791.785,1039.963,788.657,933.529,791.464z"/>
		</g>
		<g>
			
				<ellipse transform="matrix(0.2288 -0.9735 0.9735 0.2288 -56.078 1566.1823)" style="fill:#1B3D9E;" cx="960.474" cy="818.485" rx="9.424" ry="9.424"/>
			
				<ellipse transform="matrix(0.8946 -0.4469 0.4469 0.8946 -260.3281 533.3934)" style="fill:#D4DFFF;" cx="1000.411" cy="818.485" rx="9.424" ry="9.424"/>
			
				<ellipse transform="matrix(0.9239 -0.3827 0.3827 0.9239 -234.0288 460.4265)" style="fill:#D4DFFF;" cx="1040.348" cy="818.485" rx="9.424" ry="9.424"/>
		</g>
	</g>
</g>
<g>
	
		<rect x="516.348" y="796.319" transform="matrix(0.7125 0.7017 -0.7017 0.7125 724.6533 -147.9871)" style="fill:#1C056D;" width="53.142" height="27.999"/>
	<g>
		<defs>
			<circle id="XMLID_562_" cx="722.074" cy="629.43" r="209.588"/>
		</defs>
		<use xlink:href="#XMLID_562_"  style="overflow:visible;fill:#68A9FD;"/>
		<clipPath id="XMLID_00000042005499876790676480000015191143342754978975_">
			<use xlink:href="#XMLID_562_"  style="overflow:visible;"/>
		</clipPath>
		<path style="opacity:0.43;clip-path:url(#XMLID_00000042005499876790676480000015191143342754978975_);fill:#D4DFFF;" d="
			M560.736,721.155c-40.482-5.523-77.203,0.167-77.256,0c-0.123-0.395-1.073-146.911-1.073-146.911l309.062,13.413L511.714,544.34
			l57.936-122.008l391.742,75.482l-26.741,211H774.674l159.074,18.955l-52.104,100.355l-297.997,2.654l-76.33-89.165l176.367-12.419
			C683.684,729.194,616.121,728.711,560.736,721.155z"/>
	</g>
	<g>
		<path style="fill:#1B3D9E;" d="M549.542,804.63c-23.646-23.286-42.028-50.516-54.636-80.935
			c-12.174-29.371-18.471-60.452-18.716-92.379c-0.245-31.926,5.574-63.099,17.296-92.654c12.14-30.609,30.102-58.118,53.388-81.764
			c23.286-23.646,50.516-42.028,80.935-54.636c29.371-12.174,60.452-18.471,92.378-18.716c31.926-0.245,63.1,5.575,92.654,17.297
			c30.609,12.139,58.118,30.102,81.764,53.388c23.646,23.286,42.028,50.516,54.636,80.935
			c12.174,29.371,18.471,60.452,18.716,92.378c0.244,31.926-5.575,63.1-17.297,92.654c-12.139,30.609-30.102,58.118-53.388,81.764
			c-23.286,23.646-50.516,42.028-80.935,54.636c-29.371,12.174-60.452,18.471-92.378,18.716c-31.927,0.245-63.1-5.574-92.655-17.296
			C600.697,845.878,573.188,827.916,549.542,804.63z M867.387,481.871c-39.415-38.815-91.585-59.957-146.901-59.532
			c-55.316,0.424-107.156,22.364-145.97,61.779c-38.814,39.414-59.957,91.585-59.532,146.901
			c0.424,55.316,22.364,107.156,61.779,145.971c39.415,38.814,91.585,59.957,146.901,59.532
			c55.316-0.424,107.156-22.365,145.971-61.779c38.814-39.415,59.957-91.585,59.532-146.901
			C928.741,572.526,906.801,520.685,867.387,481.871z"/>
	</g>
	<path style="fill:#1B3D9E;" d="M391.357,1001.81l-36.545-35.989c-6.69-6.589-6.773-17.353-0.185-24.043l140.332-142.502
		c6.588-6.69,17.353-6.773,24.043-0.185l36.545,35.989c6.69,6.588,6.773,17.353,0.184,24.043L415.4,1001.626
		C408.812,1008.316,398.047,1008.398,391.357,1001.81z"/>
	<path style="fill:#1C056D;" d="M722.025,857.709c-60.306,0-117.106-23.265-160.125-65.628
		c-43.446-42.784-67.63-99.926-68.098-160.899c-0.468-60.974,22.836-118.48,65.621-161.925c42.784-43.446,99.926-67.63,160.9-68.098
		c0.599-0.005,1.202-0.007,1.8-0.007c60.306,0,117.107,23.264,160.125,65.628c43.446,42.784,67.63,99.926,68.098,160.9
		c0.468,60.974-22.837,118.48-65.621,161.925l-1.009-0.993l1.009,0.993c-42.784,43.446-99.926,67.63-160.899,68.098
		C723.226,857.707,722.624,857.709,722.025,857.709z M722.123,403.983c-0.595,0-1.183,0.002-1.778,0.007
		c-60.217,0.462-116.65,24.346-158.904,67.253c-42.253,42.907-65.269,99.699-64.807,159.916
		c0.462,60.217,24.346,116.65,67.253,158.904c42.482,41.836,98.585,64.814,158.139,64.814c0.595,0,1.183-0.002,1.778-0.007
		c60.217-0.462,116.65-24.346,158.904-67.253l0,0c42.253-42.907,65.269-99.7,64.807-159.917
		c-0.462-60.217-24.346-116.65-67.252-158.904C837.779,426.961,781.677,403.983,722.123,403.983z"/>
	<path style="fill:#1C056D;" d="M415.741,995.861l-55.355-54.512c-2.687-2.646-2.72-6.968-0.074-9.655l4.383-4.45
		c2.646-2.686,6.968-2.72,9.655-0.074l55.355,54.512c2.686,2.646,2.72,6.968,0.074,9.655l-4.383,4.45
		C422.75,998.473,418.427,998.506,415.741,995.861z"/>
</g>
<g>
	<path style="fill:#D4DFFF;" d="M2328.501,1552.231c-7.468-58.453,14.445-117.618,48.192-165.925s78.706-87.483,123.187-126.135
		c-6.602,29.93-13.163,65.281-19.765,95.211c-9.848,44.646-20.079,90.256-44.146,129.129
		C2411.903,1523.384,2374.22,1552.016,2328.501,1552.231z"/>
	<path style="fill:#D4DFFF;" d="M2333.663,1569.469c74.878-42.028,164.327-57.483,248.966-43.016
		c-15.375,13.984-30.447,28.801-47.313,40.945C2477.287,1609.175,2395.072,1606.097,2333.663,1569.469z"/>
	<path style="fill:#D4DFFF;" d="M2295.154,1546.386c-18.205-31.21-36.573-63.213-43.65-98.645
		c-7.704-38.573-1.393-78.895,11.617-116.016c13.01-37.121,32.493-71.577,51.873-105.807
		c7.329,71.344,33.563,142.841,17.107,212.647c-3.699,15.692-9.583,30.77-15.448,45.787
		C2308.088,1506.286,2303.72,1524.452,2295.154,1546.386z"/>
	<path style="fill:#8C9EF4;" d="M2266.003,1650.07l-1.611-1.185c0.457-0.621,45.917-62.589,63.216-97.103
		c17.353-34.624,169.876-289.554,171.414-292.125l1.717,1.027c-1.538,2.57-154.023,257.435-171.344,291.994
		C2312.021,1587.345,2266.461,1649.447,2266.003,1650.07z"/>
	<path style="fill:#8C9EF4;" d="M2315.347,1576.661l-1.166-1.625c21.224-15.246,258.232-48.179,268.312-49.573l0.273,1.981
		C2580.303,1527.784,2336.172,1561.701,2315.347,1576.661z"/>
	<path style="fill:#8C9EF4;" d="M2302.073,1594.182l-7.905-47.632c-14.491-64.67-8.32-148.491-0.59-207.41
		c8.372-63.806,20.325-112.97,20.444-113.459l1.943,0.476c-0.12,0.489-12.051,49.564-20.407,113.267
		c-7.708,58.752-13.865,142.312,0.571,206.744l7.916,47.687L2302.073,1594.182z"/>
</g>
<g>
	<path style="fill:#D4DFFF;" d="M2529.47,754.037h-726.216c-7.562,0-13.693-6.13-13.693-13.693v-63.913
		c0-7.562,6.131-13.693,13.693-13.693h726.216c7.562,0,13.693,6.13,13.693,13.693v63.913
		C2543.163,747.907,2537.032,754.037,2529.47,754.037z"/>
	<g>
		<g>
			<path style="fill:#6880E4;" d="M1822.901,688.297c-7.261,3.757-14.054,8.375-20.248,13.71c-1.502,1.293-3.133,2.625-3.578,4.659
				c-0.522,2.386,0.906,4.205,2.59,5.674c3.107,2.711,6.37,5.256,9.75,7.618c3.723,2.602,7.609,4.96,11.625,7.082
				c1.432,0.757,3.262,0.364,4.105-1.076c0.793-1.355,0.361-3.345-1.076-4.105c-4.081-2.157-8.029-4.557-11.808-7.21
				c-1.74-1.222-3.445-2.492-5.101-3.826c-0.812-0.654-1.614-1.319-2.406-1.996c-0.452-0.386-0.908-0.771-1.349-1.172
				c-0.176-0.153-0.346-0.312-0.51-0.478c0.027,0.06,0.037,0.123,0.031,0.189c-0.074,0.22-0.06,0.418,0.041,0.594
				c0.134,0.05,0.234-0.04,0.3-0.269c0.443-0.199,0.922-0.827,1.292-1.149c0.789-0.686,1.589-1.359,2.399-2.02
				c1.654-1.349,3.358-2.632,5.103-3.86c3.788-2.665,7.758-5.057,11.871-7.185c1.438-0.744,1.864-2.758,1.076-4.105
				C1826.152,687.914,1824.345,687.55,1822.901,688.297L1822.901,688.297z"/>
			<path style="fill:#6880E4;" d="M1807.039,710.669c13.454,0,26.908,0,40.361,0c3.861,0,3.867-6,0-6c-13.454,0-26.908,0-40.361,0
				C1803.178,704.669,1803.172,710.669,1807.039,710.669L1807.039,710.669z"/>
		</g>
		<g>
			<path style="fill:#6880E4;" d="M1912.381,727.041c7.261-3.757,14.054-8.375,20.248-13.71c1.502-1.293,3.133-2.625,3.578-4.659
				c0.522-2.386-0.906-4.205-2.59-5.674c-3.107-2.711-6.37-5.256-9.75-7.618c-3.723-2.602-7.609-4.96-11.625-7.082
				c-1.432-0.757-3.262-0.364-4.104,1.076c-0.793,1.356-0.361,3.345,1.076,4.105c4.081,2.157,8.029,4.557,11.808,7.21
				c1.74,1.222,3.445,2.492,5.101,3.826c0.812,0.654,1.614,1.319,2.406,1.996c0.452,0.386,0.908,0.771,1.349,1.172
				c0.176,0.153,0.346,0.312,0.51,0.478c-0.027-0.06-0.037-0.123-0.031-0.189c0.074-0.221,0.06-0.418-0.041-0.594
				c-0.134-0.05-0.233,0.04-0.299,0.269c-0.443,0.199-0.922,0.827-1.292,1.149c-0.789,0.686-1.589,1.359-2.399,2.02
				c-1.654,1.349-3.358,2.632-5.103,3.86c-3.788,2.665-7.758,5.057-11.871,7.185c-1.439,0.744-1.864,2.758-1.076,4.105
				C1909.13,727.424,1910.937,727.788,1912.381,727.041L1912.381,727.041z"/>
			<path style="fill:#6880E4;" d="M1928.243,704.669c-13.454,0-26.907,0-40.361,0c-3.861,0-3.867,6,0,6c13.454,0,26.907,0,40.361,0
				C1932.104,710.669,1932.11,704.669,1928.243,704.669L1928.243,704.669z"/>
		</g>
	</g>
	<path style="fill:#FFFFFF;" d="M2514.575,739.598h-537.228c-5.482,0-9.926-4.444-9.926-9.926V690.47
		c0-5.482,4.444-9.926,9.926-9.926h537.228c5.482,0,9.927,4.444,9.927,9.926v39.201
		C2524.501,735.154,2520.057,739.598,2514.575,739.598z"/>
</g>
<g>
	<path style="fill:#1C056D;" d="M1240.23,1177.553c-13.556,28.016-23.18,57.807-28.094,88.54c-1.6,10.009-2.772,20.455-3.133,30.749
		c-1.603,45.751,14.026,114.105,14.026,114.105h229.936c0,0,4.495-150.905-5.122-191.781c-9.618-40.875-21.64-75.762-21.64-75.762
		l-173.92,9.239L1240.23,1177.553z"/>
	<path style="fill:#FFFFFF;" d="M1267.458,849.302l-20.546,22.151l46.928,285.448l101.226-7.757c0,0-22.551-250.924-27.924-264.505
		c-5.373-13.581-36.349-32.681-36.349-32.681L1267.458,849.302z"/>
	<g>
		<g>
			<g>
				<g>
					<path style="fill:#1B3D9E;" d="M1267.458,849.302c0,0-81.641,51.175-84.524,63.172
						c-2.883,11.997,34.805,182.184,36.369,205.648c1.564,23.464-28.157,140.785-28.157,140.785s146.52,22.682,144.043,18.771
						c-2.477-3.911,25.266-74.099,25.266-109.499c0-32.391-51.229-161.39-75.883-221.595c-8.594-20.985-13.711-43.229-15.136-65.861
						L1267.458,849.302z"/>
					<g>
						<g>
							<g>
								<g>
									<defs>
										<path id="XMLID_561_" d="M1279.555,706.916c8.3-9.779,38.624-20.496,63.098-15.924
											c13.796,2.577,24.573,13.418,27.553,27.133c6.747,31.041,20.151,104.295-1.931,111c-9.832,2.985-21.4,0.648-32.512-4.195
											c-2.247,18.895-11.194,61.913-12.812,67.667c-2.274,8.086-55.505-29.876-55.493-43.294
											c0.011-12.977,25.179-59.325,25.179-59.325C1287.369,777.192,1268.007,720.523,1279.555,706.916z"/>
									</defs>
									<use xlink:href="#XMLID_561_"  style="overflow:visible;fill:#FE8E9C;"/>
									<clipPath id="XMLID_00000021121855397728312230000006660736297207117200_">
										<use xlink:href="#XMLID_561_"  style="overflow:visible;"/>
									</clipPath>
									<path style="clip-path:url(#XMLID_00000021121855397728312230000006660736297207117200_);fill:#E57492;" d="
										M1335.764,824.93c0,0-14.555-9.929-26.581-21.685c0,0,3.583,41.191,27.892,45.468L1335.764,824.93"/>
									<path style="clip-path:url(#XMLID_00000021121855397728312230000006660736297207117200_);fill:#E57492;" d="
										M1366.154,708.953c0,0-2.731,31.278-20.755,37.076c-18.024,5.799-15.02-1.848-15.02-1.848s-18.024,28.248-25.397,11.393
										s0,0,0,0l32.315-65.332C1337.296,690.244,1357.961,696.118,1366.154,708.953"/>
								</g>
								<path style="fill:#E57492;" d="M1356.816,746.03c0,0,15.695,25.4,12.379,29.509c-3.317,4.109-11.691-5.773-14.25-5.124
									c-2.559,0.649-3.827,4.734-0.676,5.207c3.151,0.473,15.389,6.507,16.658,0.709
									C1372.195,770.533,1369.897,766.153,1356.816,746.03z"/>
								<path style="fill:#FFFFFF;" d="M1372.289,790.748c0,0-4.234,10.812-16.52,1.4c0,0,0.143,9.037,8.589,10.318
									C1375.495,804.156,1372.289,790.748,1372.289,790.748z"/>
							</g>
						</g>
						<g>
							<defs>
								<path id="XMLID_560_" d="M1389.714,698.098c-5.539-3.228-12.912-3.272-17.341-7.906c-5.332-5.58-3.722-14.911-7.587-21.591
									c-2.896-5.004-8.597-7.871-14.316-8.724c-5.746-0.857-11.565,0.031-17.245,0.951c-2.715,0.44-7.052,0.706-9.279,2.878
									c-5.089-2.613-10.606-3.822-16.24-2.833c-23.036,4.047-63.507,34.866-56.658,73.157c6.849,38.291,41.59,55.947,41.59,55.947
									l2.237-14.049c-11.746-2.569-15.923-30.935-8.329-31.327s10.773,14.104,10.773,14.104
									c-2.296-14.104,11.152-23.287,11.152-23.287s-8.528,23.287,0,23.287s26.567-34.767,26.567-34.767
									s-9.184,28.207,1.968,18.367c11.152-9.84,12.464-36.735,12.464-36.735c0.285-1.926,0.227-4.087-0.116-6.385
									c1.63,0.952,3.24,1.934,4.781,3.023c12.637,8.928,19.815,25.022,18.015,40.39c9.826-2.689,19.395-8.388,23.949-17.5
									C1400.65,715.985,1398.516,703.227,1389.714,698.098z"/>
							</defs>
							<use xlink:href="#XMLID_560_"  style="overflow:visible;fill:#1B3D9E;"/>
							<clipPath id="XMLID_00000044179088479248860220000006952892327572257682_">
								<use xlink:href="#XMLID_560_"  style="overflow:visible;"/>
							</clipPath>
							<path style="clip-path:url(#XMLID_00000044179088479248860220000006952892327572257682_);fill:#1C056D;" d="
								M1323.946,663.706c0,0,26.074,11.797,25.407,35.48c-0.667,23.682,0,0,0,0s18.102,32.681,22.796,43.413
								c1.877,4.293,3.581,1.808,4.948-2.719c3.265-10.804,1.853-22.491-3.63-32.357
								C1364.402,691.214,1346.976,666.333,1323.946,663.706"/>
						</g>
					</g>
					<path style="fill:#1B3D9E;" d="M1331.309,852.266c0,0,68.72,37.81,80.029,55.559c11.308,17.748,27.598,184.268,30.011,200.558
						c2.413,16.29,47.06,139.623,41.63,141.18c-5.43,1.557-79.036,22.927-85.673,22.323c-6.637-0.603-34.887-97.939-36.85-111.013
						c-1.396-9.3,3.522-154.747-4.686-241.945C1352.438,883.54,1331.309,852.266,1331.309,852.266z"/>
				</g>
				<g>
					<g>
						<polygon style="fill:#1C056D;" points="1255.131,1148.094 1331.451,1150.24 1331.451,1159.193 1255.131,1155.769 						"/>
						<polygon style="fill:#1C056D;" points="1383.422,1145.677 1434.146,1125.524 1436.885,1132.921 1386.072,1153.207 						"/>
					</g>
					<path style="fill:#1C056D;" d="M1331.451,1159.193c0,0-6.414,72.966-10.461,74.189c-4.047,1.222-68.521,0.306-71.271-5.5
						c-2.75-5.806,5.412-72.113,5.412-72.113s-11.941,71.196-8.218,76.391c3.723,5.195,73.391,9.167,76.753,6.417
						C1327.027,1235.827,1331.451,1159.193,1331.451,1159.193z"/>
					<path style="fill:#1C056D;" d="M1386.072,1153.207c0,0,15.909,68.813,18.504,69.249c2.595,0.435,48.497-19.699,50.012-24.834
						c1.515-5.135-17.703-64.701-17.703-64.701s21.172,62.915,20.892,65.985c-0.279,3.07-24.563,17.864-34.333,21.214
						c-9.77,3.35-18.143,7.816-20.097,5.862C1401.394,1224.028,1386.072,1153.207,1386.072,1153.207z"/>
				</g>
			</g>
			<path style="fill:#6880E4;" d="M1252.141,859.12c0,0-32.552,91.584-17.953,109.618c14.599,18.034,42.938,13.311,42.938,13.311
				s-18.906,30.916-9.668,42.509c9.238,11.593,69.808,58.665,69.808,58.665s-52.411-143.254-57.134-153.559
				c-4.723-10.305-12.673-80.361-12.673-80.361L1252.141,859.12z"/>
			<path style="fill:#6880E4;" d="M1331.309,852.266c0,0,23.006,37.058,25.33,76.743c2.324,39.685,3.816,149.906,3.816,149.906
				s42.123-80.627,34.61-92.015c-7.513-11.388-23-20.639-23-20.639s25.958-25.369,23-38.123
				c-2.957-12.754-23.834-52.111-23.834-52.111S1337.455,854.226,1331.309,852.266z"/>
		</g>
		<g>
			<path style="fill:#FC476A;" d="M1322.951,892.597c0,0-15.927,28.393-21.103,27.198c-5.176-1.195-31.32-45.407-31.32-45.407
				l-3.071-25.086C1267.458,849.302,1304.239,892.075,1322.951,892.597z"/>
			<path style="fill:#FC476A;" d="M1322.951,892.597c0,0,14.589,19.316,19.332,18.604c4.743-0.711,3.311-29.311,3.311-29.311
				s-10.319-25.241-14.285-29.624C1331.309,852.266,1325.6,884.567,1322.951,892.597z"/>
		</g>
	</g>
	<g>
		<g>
			<path style="fill:#1B3D9E;" d="M1411.338,907.825c0,0,115.415,132.752,131.464,133.335
				c16.049,0.583,122.551-107.826,122.551-107.826l41.693,39.003c0,0-123.215,178.375-164.245,171.068
				c-41.03-7.307-105.917-73.816-105.917-73.816L1411.338,907.825z"/>
			<path style="fill:#1C056D;" d="M1436.885,1069.588c0,0-7.935-103.171-14.959-121.182c0,0,38.163,91.262,35.854,141.003
				L1436.885,1069.588z"/>
			<path style="fill:#FFFFFF;" d="M1665.353,933.333c0,0-16.502,20.047-12.36,27.814c4.143,7.768,31.945,41.955,31.945,41.955
				l22.108-30.766L1665.353,933.333z"/>
		</g>
		<circle style="fill:#1B3D9E;" cx="1685.788" cy="974.32" r="6.102"/>
	</g>
	<g>
		<path style="fill:#1B3D9E;" d="M1211.592,1026.941c0,0-41.546,46.788-38.071,62.468c3.475,15.68,104.156,83.148,104.156,83.148
			l-22.546,49.634c0,0-172.61-81.38-179.729-122.443c-8.051-46.442,109.872-191.114,109.872-191.114L1211.592,1026.941z"/>
		<path style="fill:#1C056D;" d="M1204.3,1035.531c0,0,18.312-19.639,11.069-48.207c0,0,23.252,54.146-5.458,76.738L1204.3,1035.531
			z"/>
		<path style="fill:#1C056D;" d="M1277.677,1172.557l-22.546,49.634l-49.316-24.891l-3.132,13.75c0,0,54.549,30.509,56.25,30.023
			C1260.633,1240.587,1277.677,1172.557,1277.677,1172.557z"/>
		<path style="fill:#FFFFFF;" d="M1277.677,1172.557c0,0-15.634-5.992-20.921-5.614c-5.286,0.378-32.499,39.665-32.499,39.665
			l30.874,15.583L1277.677,1172.557z"/>
		<path style="fill:#1B3D9E;" d="M1254.231,1206.953c0,2.853-2.313,5.166-5.166,5.166c-2.853,0-5.166-2.313-5.166-5.166
			c0-2.853,2.313-5.166,5.166-5.166C1251.918,1201.787,1254.231,1204.1,1254.231,1206.953z"/>
	</g>
	<g>
		<defs>
			<path id="XMLID_559_" d="M1271.617,1238.66c0,0,60.38-93.023,97.25-109.61c0,0,33.808,45.001,69.175,50.698
				c0,0-93.17,125.378-106.614,124.925C1331.428,1304.673,1287.44,1245.434,1271.617,1238.66z"/>
		</defs>
		<use xlink:href="#XMLID_559_"  style="overflow:visible;fill:#D4DFFF;"/>
		<clipPath id="XMLID_00000082326248104618524110000009962639648210994357_">
			<use xlink:href="#XMLID_559_"  style="overflow:visible;"/>
		</clipPath>
		<path style="opacity:0.44;clip-path:url(#XMLID_00000082326248104618524110000009962639648210994357_);fill:#6880E4;" d="
			M1280.921,1212.119c0,0,71.941,14.468,100.448,13.799s42.076-5.798,42.076-5.798s-77.824,95.71-86.179,96.313
			c-8.355,0.603-72.86-70.617-72.873-75.355C1264.38,1236.341,1280.921,1212.119,1280.921,1212.119z"/>
	</g>
	<g>
		<defs>
			<path id="XMLID_558_" d="M1355.949,1220.724c4.3-0.717,8.839-4.539,8.361-6.211c-0.478-1.672-39.179-6.928-41.15-7.56
				c-1.971-0.632-20.246-10.596-20.246-10.596s18.075-21.446,17.676-23.8c-0.644-3.796-33.881,9.886-36.028,9.648
				c-2.147-0.239-9.355-4.21-9.355-4.21l-17.797,39.18c0,0,23.441,14.61,34.819,20.342l-0.003,0c0,0,34.114,19.563,36.965,20.323
				c2.852,0.761,2.472-5.133,0-7.414c-0.983-0.908-5.007-3.411-9.495-6.095c8.207,1.34,15.678,2.308,17.38,2.194
				c3.583-0.239,7.883-3.823,8.839-5.446c0.807-1.371-25.791-6.419-32.092-7.529c6.756,0.806,36.334,2.448,38.781,2.225
				c2.628-0.239,10.034-4.3,9.795-6.45c-0.239-2.15-48.974-9.317-48.974-9.317s1.911,0.239,6.351,0.717
				C1324.215,1221.202,1351.649,1221.441,1355.949,1220.724z"/>
		</defs>
		<use xlink:href="#XMLID_558_"  style="overflow:visible;fill:#FE8E9C;"/>
		<clipPath id="XMLID_00000112607536338856640230000013664203385552558999_">
			<use xlink:href="#XMLID_558_"  style="overflow:visible;"/>
		</clipPath>
		<path style="clip-path:url(#XMLID_00000112607536338856640230000013664203385552558999_);fill:#E57492;" d="M1313.823,1233.55
			l-6.903,0.124c0,0,32.819,7.588,38.996,7.405c6.177-0.183,0,0,0,0S1341.93,1236.037,1313.823,1233.55"/>
		<path style="clip-path:url(#XMLID_00000112607536338856640230000013664203385552558999_);fill:#E57492;" d="M1319.697,1244.331
			l-12.976-3.731c0,0,22.045,12.028,23.802,11.801C1332.278,1252.173,1328.494,1247.901,1319.697,1244.331"/>
		<path style="clip-path:url(#XMLID_00000112607536338856640230000013664203385552558999_);fill:#E57492;" d="M1320.59,1172.557
			c0,0-28.146,18.789-26.239,20.123s18.639,9.106,18.639,9.106s-4.72-4.912-3.004-8.534
			C1311.702,1189.63,1324.521,1176.649,1320.59,1172.557"/>
	</g>
	<g>
		<path style="fill:#FC476A;" d="M1722.957,958.439c-2.555,0-4.625-2.068-4.621-4.623c0.051-35.57,0.702-264.237,9.086-258.595
			c8.381,5.64,1.309,224.604,0.153,258.759C1727.491,956.47,1725.448,958.439,1722.957,958.439L1722.957,958.439z"/>
		<g>
			<defs>
				<path id="XMLID_557_" d="M1671.319,938.914c0,0,8.445-6.912,10.289-8.295c1.844-1.383,14.292-20.232,17.98-22.794
					c3.688-2.563,38.184-8.85,37.827-6.712c-0.356,2.138-2.691,5.103-4.08,6.712c-1.39,1.609-15,9.02-15,9.02v32.887l-13.967,3.011
					l-7.509,10.065L1671.319,938.914z"/>
			</defs>
			<use xlink:href="#XMLID_557_"  style="overflow:visible;fill:#FE8E9C;"/>
			<clipPath id="XMLID_00000069394252689964354270000017202998554255426726_">
				<use xlink:href="#XMLID_557_"  style="overflow:visible;"/>
			</clipPath>
			<path style="clip-path:url(#XMLID_00000069394252689964354270000017202998554255426726_);fill:#E57492;" d="M1718.335,916.844
				c0,0-6.15,9.374-6.859,14.897c-0.709,5.523,0,21.116,0,21.116l10.396-2.835C1721.872,950.023,1721.65,919.105,1718.335,916.844"
				/>
		</g>
		<g>
			<defs>
				<path id="XMLID_556_" d="M1746.025,924.196c0.33-0.187,0.541-0.343,0.614-0.462c3.117-5.098-3.205-7.739-4.648-7.502
					c-0.921,0.152-2.918,0.541-4.245,0.804c4.116-3.514,7.267-6.59,7.482-7.276c0.839-2.677-4.323-9.084-7.81-6.55
					c-1.183,0.86-4.083,4.614-4.083,4.614s-12.766,8.782-15.685,16.898c-1.705,1.255-3.085,2.668-3.854,4.249
					c-1.691,3.478,4.314,3.22,11.637,1.691c-3.963,2.49-7.642,5.61-8.719,9.033c-0.787,2.502,1.682,2.773,5.532,1.886
					c-1.499,1.083-2.714,2.307-3.413,3.681c-3.585,7.05,27.886-3.27,28.873-4.992c0.986-1.722,0.798-5.572-3.168-6.07
					c-1.312-0.165-5.024,0.869-5.024,0.869s-0.24,0.045-0.657,0.131c5.165-2.476,9.267-4.835,9.57-5.52
					C1749.383,927.517,1747.801,925.464,1746.025,924.196z"/>
			</defs>
			<use xlink:href="#XMLID_556_"  style="overflow:visible;fill:#FE8E9C;"/>
			<clipPath id="XMLID_00000016050436599254707240000005512075605692999094_">
				<use xlink:href="#XMLID_556_"  style="overflow:visible;"/>
			</clipPath>
			<path style="clip-path:url(#XMLID_00000016050436599254707240000005512075605692999094_);fill:#E57492;" d="M1717.651,924.723
				c0,0,3.34,1.642,6.332,0.441c2.992-1.201,14.468-8.732,14.468-8.732s-12.387,10.01-15.636,10.523
				c-3.248,0.513-6.051-1.534-6.051-1.534L1717.651,924.723"/>
			<path style="clip-path:url(#XMLID_00000016050436599254707240000005512075605692999094_);fill:#E57492;" d="M1725.434,930.662
				c0,0,17.881-5.211,20.591-6.466c2.71-1.255,0,0,0,0l1.14,0.968c0,0-21.183,8.73-25.64,7.649L1725.434,930.662"/>
			<path style="clip-path:url(#XMLID_00000016050436599254707240000005512075605692999094_);fill:#E57492;" d="M1722.248,941.582
				c0,0,14.806-6.04,17.904-6.681c3.097-0.641,0,0,0,0s-21.816,9.467-21.816,12.149
				C1718.335,947.05,1717.524,944.37,1722.248,941.582"/>
		</g>
	</g>
</g>
<g>
	<ellipse style="fill:#F6F9FF;" cx="1639.712" cy="1838.265" rx="267.478" ry="34.973"/>
	<g>
		<defs>
			<path id="XMLID_555_" d="M1813.451,1505.551c0,0-63.431,15.632-77.814,27.785c-19.918,16.829-81.099,238.968-81.099,238.968
				s28.608,9.314,39.918,2.661s80.502-124.312,80.502-167.94l38.492-3.091C1813.451,1603.933,1820.842,1567.438,1813.451,1505.551z"
				/>
		</defs>
		<use xlink:href="#XMLID_555_"  style="overflow:visible;fill:#FE8E9C;"/>
		<clipPath id="XMLID_00000181088988921964147860000016357240417934129811_">
			<use xlink:href="#XMLID_555_"  style="overflow:visible;"/>
		</clipPath>
		<path style="clip-path:url(#XMLID_00000181088988921964147860000016357240417934129811_);fill:#E57492;" d="M1694.457,1774.964
			c0,0,57.571-217.348,61.159-234.263c4.297-20.256,45.969-25.52,45.969-25.52s12.957,73.696,10.487,78.865
			c-2.47,5.169-33.854,21.808-33.891,26.326c-0.037,4.518-49.387,155.24-58.64,156.988
			C1710.288,1779.109,1694.457,1774.964,1694.457,1774.964"/>
	</g>
	<g>
		<path style="fill:#1B3D9E;" d="M1883.667,1474.76c0,0-98.366,27.341-98.366,30.583s34.74,103.313,38.175,105.966
			c3.435,2.653,103.949,3.734,130.428-1.129c26.479-4.864,51.878-127.872,49.717-129.865
			C2001.459,1478.324,1883.667,1474.76,1883.667,1474.76z"/>
		<g>
			<defs>
				<path id="XMLID_542_" d="M2085.043,1480.316c0,0,39.393,119.726-46.124,136.339c-85.517,16.613-180.531,3.717-180.531,3.717
					l-13.475-122.095l121.703-13.917L2085.043,1480.316z"/>
			</defs>
			<use xlink:href="#XMLID_542_"  style="overflow:visible;fill:#1B3D9E;"/>
			<clipPath id="XMLID_00000080920308723042497520000014650341293644335284_">
				<use xlink:href="#XMLID_542_"  style="overflow:visible;"/>
			</clipPath>
			<path style="clip-path:url(#XMLID_00000080920308723042497520000014650341293644335284_);fill:#1C056D;" d="M1934.001,1480.316
				c0,0,37.367,27.978,82.142,28.13c44.775,0.152,83.466-9.72,83.466-9.72l-12.983-31.476c0,0-170.696,12.875-165.273,17.271"/>
			<g style="clip-path:url(#XMLID_00000080920308723042497520000014650341293644335284_);">
				<polygon style="fill:#1C056D;" points="1863.485,1491.553 1863.361,1490.057 1866.351,1489.815 1866.475,1491.301 				"/>
				<path style="fill:#1C056D;" d="M1890.532,1628.143c-0.545-0.811-1.095-1.717-1.636-2.693l2.625-1.453
					c0.499,0.901,1.004,1.734,1.501,2.475L1890.532,1628.143z M1887.472,1622.679c-0.427-0.895-0.854-1.844-1.269-2.821l2.762-1.172
					c0.4,0.941,0.805,1.842,1.214,2.7L1887.472,1622.679z M1885.051,1617.001c-0.357-0.93-0.71-1.891-1.059-2.88l2.83-0.996
					c0.339,0.962,0.683,1.898,1.029,2.802L1885.051,1617.001z M1883.009,1611.221c-0.31-0.949-0.616-1.921-0.919-2.914l2.869-0.875
					c0.297,0.974,0.598,1.928,0.901,2.859L1883.009,1611.221z M1881.226,1605.38c-0.277-0.964-0.55-1.943-0.82-2.938l2.896-0.785
					c0.265,0.979,0.533,1.944,0.807,2.894L1881.226,1605.38z M1879.628,1599.496c-0.249-0.971-0.496-1.955-0.741-2.951l2.914-0.715
					c0.241,0.984,0.486,1.959,0.733,2.92L1879.628,1599.496z M1878.179,1593.586c-0.23-0.979-0.457-1.968-0.681-2.965l2.928-0.656
					c0.222,0.987,0.446,1.966,0.673,2.935L1878.179,1593.586z M1876.846,1587.653c-0.213-0.984-0.423-1.976-0.63-2.974l2.938-0.609
					c0.205,0.99,0.413,1.974,0.624,2.948L1876.846,1587.653z M1875.61,1581.701c-0.197-0.987-0.392-1.979-0.585-2.978l2.945-0.57
					c0.192,0.992,0.386,1.98,0.581,2.962L1875.61,1581.701z M1874.456,1575.74c-0.185-0.992-0.368-1.987-0.549-2.985l2.953-0.533
					c0.179,0.992,0.36,1.981,0.545,2.968L1874.456,1575.74z M1873.375,1569.766c-0.174-0.995-0.347-1.991-0.516-2.99l2.957-0.502
					c0.169,0.993,0.34,1.985,0.514,2.975L1873.375,1569.766z M1872.358,1563.786c-0.166-1-0.328-2-0.489-2.999l2.963-0.477
					c0.159,0.995,0.321,1.991,0.485,2.985L1872.358,1563.786z M1871.395,1557.79l-0.46-2.99l2.965-0.451l0.46,2.98L1871.395,1557.79
					z M1870.485,1551.801c-0.149-1.003-0.295-2.004-0.439-3.001l2.969-0.428c0.144,0.993,0.289,1.99,0.437,2.989L1870.485,1551.801z
					 M1869.618,1545.797l-0.417-3.002l2.973-0.408l0.415,2.994L1869.618,1545.797z M1868.794,1539.791l-0.397-3.006l2.975-0.389
					l0.395,2.996L1868.794,1539.791z M1868.008,1533.778c-0.129-1.012-0.255-2.016-0.378-3.01l2.976-0.369
					c0.123,0.99,0.249,1.99,0.378,2.998L1868.008,1533.778z M1867.26,1527.761l-0.36-3.011l2.979-0.354l0.36,3.003L1867.26,1527.761
					z M1866.547,1521.738l-0.344-3.014l2.981-0.336l0.344,3.004L1866.547,1521.738z M1865.866,1515.711l-0.327-3.014l2.982-0.32
					l0.327,3.008L1865.866,1515.711z M1865.22,1509.682c-0.109-1.039-0.213-2.047-0.312-3.021l2.984-0.303
					c0.099,0.97,0.202,1.974,0.311,3.009L1865.22,1509.682z M1864.604,1503.643l-0.294-3.021l2.986-0.287l0.294,3.014
					L1864.604,1503.643z M1864.025,1497.597c-0.105-1.125-0.197-2.138-0.276-3.029l2.988-0.266c0.079,0.888,0.171,1.896,0.274,3.018
					L1864.025,1497.597z"/>
				<path style="fill:#1C056D;" d="M1893.484,1631.759c-0.37-0.356-0.747-0.757-1.121-1.189l2.272-1.961
					c0.313,0.364,0.627,0.697,0.932,0.99L1893.484,1631.759z"/>
			</g>
			<path style="clip-path:url(#XMLID_00000080920308723042497520000014650341293644335284_);fill:#1C056D;" d="M2078.892,1559.32
				c-0.224,0-0.451-0.03-0.677-0.094c-17.34-4.868-29.57-19.056-35.37-41.028c-4.302-16.294-3.588-30.947-3.555-31.563
				c0.073-1.378,1.234-2.409,2.627-2.364c1.378,0.072,2.438,1.248,2.366,2.627c-0.03,0.567-2.511,56.905,35.283,67.515
				c1.329,0.373,2.104,1.754,1.731,3.083C2080.989,1558.599,2079.985,1559.32,2078.892,1559.32z"/>
		</g>
		<g>
			<g>
				<defs>
					<path id="XMLID_541_" d="M2163.74,1336.522c0,0-12.975-71.943-26.809-94.324c-13.834-22.381-79.229-50.267-79.229-50.267
						s-63.028-8.76-95.026,8.202c-37.405,19.829-87.96,99.856-87.96,99.856l39.973,20.281l-46.141,149.978
						c0,0,40.58,12.912,78.473,19.508c37.892,6.595,150.253-6.596,156.709-5.846c6.456,0.75-8.99-140.184-8.99-140.184
						C2105.807,1345.569,2163.74,1336.522,2163.74,1336.522z"/>
				</defs>
				<use xlink:href="#XMLID_541_"  style="overflow:visible;fill:#FC476A;"/>
				<clipPath id="XMLID_00000028310428742677619870000008781125616245506222_">
					<use xlink:href="#XMLID_541_"  style="overflow:visible;"/>
				</clipPath>
				<path style="clip-path:url(#XMLID_00000028310428742677619870000008781125616245506222_);fill:#D40221;" d="M2122.782,1342.102
					c0,0-25.114-10.045-28.148-18.427c-3.034-8.382-17.701-60.979-17.701-60.979s3.507,113.145,22.742,129.652
					c19.235,16.506,0,0,0,0S2107.437,1347.67,2122.782,1342.102"/>
				<path style="clip-path:url(#XMLID_00000028310428742677619870000008781125616245506222_);fill:#D40221;" d="M1897.853,1311.727
					c0,0,15.81-1.808,21.379-11.647c5.569-9.839,23.737-42.636,23.737-42.636l-39.043,97.807c0,0,2.603-27.059,1.666-30.339
					C1904.655,1321.632,1897.853,1311.727,1897.853,1311.727"/>
			</g>
			<g>
				<g>
					<defs>
						<path id="XMLID_540_" d="M1956.859,1032.92c0,0-25.529,8.159-28.367,18.447s6.073,46.737,6.073,46.737l30.111-32.592
							L1956.859,1032.92z"/>
					</defs>
					<use xlink:href="#XMLID_540_"  style="overflow:visible;fill:#F9C438;"/>
					<clipPath id="XMLID_00000007403430717404182950000013388175329717577617_">
						<use xlink:href="#XMLID_540_"  style="overflow:visible;"/>
					</clipPath>
					<path style="clip-path:url(#XMLID_00000007403430717404182950000013388175329717577617_);fill:#F6AB36;" d="M1940.721,1038.196
						c0,0-9.216,11.52-7.077,22.546s7.241,12.014,7.241,12.014l12.184-17.773l-6.764-20.9L1940.721,1038.196z"/>
				</g>
				<g>
					<defs>
						<path id="XMLID_539_" d="M2058.701,1191.93l-21.77-9.441c-0.015-0.04-0.023-0.082-0.04-0.122
							c-3.011-7.026-31.074-53.412-31.074-53.412c4.145-10.86,19.163-58.907,9.158-70.085c-7.184-8.027-32.859-16.354-53.314-12
							c-11.544,2.457-15.783,13.707-22.598,23.344c-20.962,29.639-14.662,88.157,4.06,93.308c8.327,2.291,17.997,0.072,27.227-4.243
							c1.089,7.473,3.551,19.431,6.004,30.479l-10.9,9.228c0,0,12.134,17.141,36.255,15.68
							C2025.83,1213.204,2058.701,1191.93,2058.701,1191.93z"/>
					</defs>
					<use xlink:href="#XMLID_539_"  style="overflow:visible;fill:#FE8E9C;"/>
					<clipPath id="XMLID_00000072252718649112167470000004270224786435481998_">
						<use xlink:href="#XMLID_539_"  style="overflow:visible;"/>
					</clipPath>
					<path style="clip-path:url(#XMLID_00000072252718649112167470000004270224786435481998_);fill:#E57492;" d="M1937.172,1058.247
						c0,0-19.376,27.159,19.854,25.084c39.229-2.075,34.037,5.741,33.901,6.808c-0.136,1.067,6.247-9.637,4.468-14.352
						C1993.614,1071.072,1937.172,1058.247,1937.172,1058.247z"/>
				</g>
				<g>
					<path style="fill:#E57492;" d="M1949.407,1079.436c0,0-13.525,30.175-8.606,33.404c4.919,3.229,17.108-3.752,17.108-3.752l0,0
						c-0.171,2.159-0.142,3.661-2.185,4.381c-5.914,2.084-15.354,5.685-17.807,0.967
						C1933.606,1106.145,1949.407,1079.436,1949.407,1079.436z"/>
					<path style="fill:#E57492;" d="M1970.35,1159.278c0,0,18.507-12.852,24.548-20.563c0,0-4.961,26.224-22.204,33.725
						L1970.35,1159.278z"/>
				</g>
				<path style="fill:#FFFFFF;" d="M1939.412,1133.284c0,0,7.579,6.203,13.184,0.798c0,0,0.828,6.408-7.579,7.609
					C1936.61,1142.892,1939.412,1133.284,1939.412,1133.284z"/>
				<path style="fill:#F9C438;" d="M1944.951,1037.699c0,0-14.38,37.846,16.391,39.449c30.771,1.603,31.091,5.128,30.13,9.616
					c-0.962,4.487-1.923,17.6-1.923,17.6s6.337-10.708,9.396-9.396c3.059,1.311,8.304,11.582,5.9,15.297
					c-2.404,3.715-6.827,7.797-7.482,8.078s8.454,10.613,8.454,10.613s9.736-1.209,16.51-8.858
					c6.774-7.648,18.734-38.841,7.435-64.145c-15.543-34.807-52.081-31.523-63.046-31.742
					C1955.75,1023.992,1944.951,1037.699,1944.951,1037.699z"/>
				<g>
					<path style="fill:#1C056D;" d="M1969.095,1104.696c-8.254,0-14.969-6.715-14.969-14.969s6.715-14.969,14.969-14.969
						s14.969,6.715,14.969,14.969S1977.349,1104.696,1969.095,1104.696z M1969.095,1076.548c-7.268,0-13.18,5.912-13.18,13.18
						s5.912,13.18,13.18,13.18s13.18-5.912,13.18-13.18S1976.363,1076.548,1969.095,1076.548z"/>
					<path style="fill:#1C056D;" d="M1937.149,1096.438c-8.254,0-14.969-6.715-14.969-14.969s6.715-14.969,14.969-14.969
						s14.969,6.715,14.969,14.969S1945.403,1096.438,1937.149,1096.438z M1937.149,1068.29c-7.267,0-13.18,5.912-13.18,13.18
						s5.912,13.18,13.18,13.18c7.268,0,13.18-5.912,13.18-13.18S1944.416,1068.29,1937.149,1068.29z"/>
					
						<rect x="1952.175" y="1083.362" transform="matrix(0.2098 -0.9777 0.9777 0.2098 481.6955 2767.5974)" style="fill:#1C056D;" width="1.79" height="4.855"/>
					<path style="fill:#1C056D;" d="M1996.059,1096.053c-0.014,0-0.026,0-0.04-0.001l-13.74-0.599
						c-0.493-0.021-0.876-0.438-0.854-0.933s0.446-0.891,0.933-0.854l13.74,0.599c0.493,0.021,0.876,0.438,0.854,0.933
						C1996.931,1095.678,1996.535,1096.053,1996.059,1096.053z"/>
				</g>
			</g>
		</g>
		<path style="fill:#1C056D;" d="M1857.637,1613.564c0,0-26.783-113.587-12.723-115.287c14.06-1.701,86.64-11.51,86.64-11.51
			s-103.04,3.348-105.81,10.733c-2.769,7.384,17.847,115.512,17.847,115.512L1857.637,1613.564z"/>
	</g>
	<g>
		<defs>
			<path id="XMLID_538_" d="M1840.895,1515.182c0,0-55.015,1.96-64.995,17.927c-9.98,15.967-77.176,248.825-77.176,248.825
				s28.608,9.314,39.918,2.661c11.31-6.653,80.502-124.312,80.502-167.94l38.492-3.091
				C1857.637,1613.564,1848.287,1577.068,1840.895,1515.182z"/>
		</defs>
		<use xlink:href="#XMLID_538_"  style="overflow:visible;fill:#FE8E9C;"/>
		<clipPath id="XMLID_00000021833159428480592890000008097352597368730770_">
			<use xlink:href="#XMLID_538_"  style="overflow:visible;"/>
		</clipPath>
		<path style="clip-path:url(#XMLID_00000021833159428480592890000008097352597368730770_);fill:#E57492;" d="M1835.392,1510.743
			c0,0-27.36,69.269,1.466,109.629l45.437-3.717l-24.657-108.844L1835.392,1510.743z"/>
	</g>
	<g>
		<g>
			<defs>
				<path id="XMLID_537_" d="M1651.578,1771.981c0,0,34.337,12.303,44.49-1.947c0,0,12.055,15.063,11.169,26.139
					c-0.886,11.077-2.805,33.811-7.697,38.704l-144.077,3.388c-3.438,0-6.011-3.132-5.365-6.509
					c1.453-7.59,4.602-19.807,10.482-25.393C1569.441,1797.946,1651.578,1771.981,1651.578,1771.981z"/>
			</defs>
			<use xlink:href="#XMLID_537_"  style="overflow:visible;fill:#1B3D9E;"/>
			<clipPath id="XMLID_00000180353840934635240280000005124360842216530617_">
				<use xlink:href="#XMLID_537_"  style="overflow:visible;"/>
			</clipPath>
			<path style="opacity:0.39;clip-path:url(#XMLID_00000180353840934635240280000005124360842216530617_);fill:#1C056D;" d="
				M1587.212,1842.444c0,0,0-23.596,3.708-26.967c3.708-3.371,89.837-35.491,89.837-35.491s-4.077,57.808-8.698,58.279
				C1667.438,1838.736,1587.212,1842.444,1587.212,1842.444z"/>
			<path style="clip-path:url(#XMLID_00000180353840934635240280000005124360842216530617_);fill:#1C056D;" d="M1546.255,1832.288
				c-0.524,0-0.965-0.408-0.997-0.938c-0.034-0.552,0.386-1.025,0.937-1.06l166.102-10.221c0.569-0.028,1.026,0.386,1.06,0.937
				c0.034,0.552-0.386,1.025-0.937,1.06l-166.101,10.221C1546.296,1832.287,1546.276,1832.288,1546.255,1832.288z"/>
		</g>
		<path style="fill:#1C056D;" d="M1560.58,1806.364c0,0,9.538,4.969,14.482,4.744c4.944-0.225,101.576-32.36,98.879-34.383
			s-15.865-13.519-20.9-13.933C1648.007,1762.378,1559.581,1802.519,1560.58,1806.364z"/>
		<path style="fill:#1B3D9E;" d="M1633.609,1770.034c0,0,13.7,4.94,20.903,16.918l-8.176,3.023c0,0-12.09-13.673-21.424-16.181
			L1633.609,1770.034z"/>
		<path style="fill:#1B3D9E;" d="M1613.765,1778.775c0,0,13.7,4.94,20.903,16.918l-8.177,3.023c0,0-12.09-13.672-21.424-16.181
			L1613.765,1778.775z"/>
		<path style="fill:#1B3D9E;" d="M1589.128,1790.266c0,0,13.769,5.426,20.972,17.404l-8.176,3.023c0,0-12.09-13.673-21.424-16.181
			L1589.128,1790.266z"/>
	</g>
	<g>
		<g>
			<defs>
				<path id="XMLID_536_" d="M1698.725,1781.934c0,0,34.337,12.303,44.49-1.947c0,0,12.055,15.063,11.169,26.139
					c-0.886,11.077-2.805,33.811-7.697,38.703l-144.077,3.389c-3.438,0-6.011-3.132-5.365-6.509
					c1.453-7.59,4.602-19.807,10.482-25.393C1616.589,1807.898,1698.725,1781.934,1698.725,1781.934z"/>
			</defs>
			<use xlink:href="#XMLID_536_"  style="overflow:visible;fill:#1B3D9E;"/>
			<clipPath id="XMLID_00000149379851912442007930000017477649805563868059_">
				<use xlink:href="#XMLID_536_"  style="overflow:visible;"/>
			</clipPath>
			<path style="clip-path:url(#XMLID_00000149379851912442007930000017477649805563868059_);fill:#1C056D;" d="M1593.532,1843.15
				c-0.533,0-0.976-0.421-0.998-0.958c-0.024-0.552,0.405-1.018,0.957-1.041c6.315-0.265,154.693-6.463,159.595-6.213
				c0.552,0.029,0.975,0.5,0.946,1.052c-0.029,0.551-0.482,0.966-1.052,0.946c-4.815-0.237-157.859,6.147-159.405,6.213
				C1593.561,1843.15,1593.547,1843.15,1593.532,1843.15z"/>
		</g>
		<path style="fill:#1C056D;" d="M1607.727,1816.317c0,0,9.538,4.969,14.482,4.744c4.944-0.225,101.576-32.36,98.879-34.383
			c-2.697-2.022-15.865-13.519-20.899-13.933C1695.155,1772.331,1606.729,1812.472,1607.727,1816.317z"/>
		<path style="fill:#1B3D9E;" d="M1680.756,1779.986c0,0,13.7,4.94,20.903,16.918l-8.176,3.023c0,0-12.09-13.672-21.424-16.181
			L1680.756,1779.986z"/>
		<path style="fill:#1B3D9E;" d="M1660.912,1788.727c0,0,13.7,4.94,20.903,16.918l-8.177,3.023c0,0-12.09-13.672-21.424-16.181
			L1660.912,1788.727z"/>
		<path style="fill:#1B3D9E;" d="M1636.275,1800.219c0,0,13.769,5.426,20.972,17.404l-8.177,3.023c0,0-12.09-13.672-21.424-16.181
			L1636.275,1800.219z"/>
	</g>
	<g>
		<path style="fill:#1C056D;" d="M1821.46,1498.277c0,0-91.999-135.261-85.823-137.383s224.035,5.257,223.226,10.56
			c-0.808,5.303,71.297,132.237,66.01,134.097C2019.585,1507.411,1840.629,1499.054,1821.46,1498.277z"/>
		<path style="fill:#1B3D9E;" d="M1881.614,1423.697c5.098,9.952,3.38,21.016-3.837,24.713c-7.216,3.697-17.199-1.374-22.297-11.326
			s-3.38-21.016,3.837-24.712C1866.534,1408.675,1876.516,1413.745,1881.614,1423.697z"/>
	</g>
	<g>
		<defs>
			<path id="XMLID_535_" d="M2094.739,1343.725c0,0,16.365,72.065,12.154,74.872c-4.211,2.807-103.144,40.592-103.144,40.592
				l13.142,25.812c0,0,136.436-19.699,142.633-23.74c18.341-11.962-1.079-123.934-1.079-123.934
				S2107.883,1344.751,2094.739,1343.725z"/>
		</defs>
		<use xlink:href="#XMLID_535_"  style="overflow:visible;fill:#FE8E9C;"/>
		<clipPath id="XMLID_00000098907340139847983480000011332319228074304135_">
			<use xlink:href="#XMLID_535_"  style="overflow:visible;"/>
		</clipPath>
		<path style="clip-path:url(#XMLID_00000098907340139847983480000011332319228074304135_);fill:#E57492;" d="M2093.616,1360.521
			c0,0,54.797-3.851,66.908-17.947l-1.787-13.898c0,0-68.298,8.736-68.298,11.118
			C2090.439,1342.176,2093.616,1360.521,2093.616,1360.521z"/>
		<path style="clip-path:url(#XMLID_00000098907340139847983480000011332319228074304135_);fill:#E57492;" d="M2106.894,1418.597
			c0,0,15.626,8.976,20.336,17.611c4.71,8.635,4.513-16.516-19.723-23.369c-24.236-6.853,0,0,0,0L2106.894,1418.597"/>
	</g>
	<g>
		<defs>
			<polygon id="XMLID_1_" points="1880.245,1302.793 1849.961,1363.437 1900.691,1365.765 1914.688,1320.269 			"/>
		</defs>
		<use xlink:href="#XMLID_1_"  style="overflow:visible;fill:#FE8E9C;"/>
		<clipPath id="XMLID_00000144339756067259788390000013820470928819401345_">
			<use xlink:href="#XMLID_1_"  style="overflow:visible;"/>
		</clipPath>
		<path style="clip-path:url(#XMLID_00000144339756067259788390000013820470928819401345_);fill:#E57492;" d="M1874.933,1305.875
			c0,0,25.084,42.661,36.436,41.928l9.887-32.408l-41.01-17.943L1874.933,1305.875z"/>
	</g>
</g>
</svg>
