<?xml version="1.0" encoding="utf-8"?>
<!-- Generator: Adobe Illustrator 27.5.0, SVG Export Plug-In . SVG Version: 6.00 Build 0)  -->
<svg version="1.1" xmlns="http://www.w3.org/2000/svg" xmlns:xlink="http://www.w3.org/1999/xlink" x="0px" y="0px"
	 viewBox="0 0 500 500" style="enable-background:new 0 0 500 500;" xml:space="preserve">
<g id="BACKGROUND">
	<rect id="XMLID_2_" style="fill:#FFFFFF;" width="500" height="500"/>
</g>
<g id="OBJECTS">
	<g>
		<g id="XMLID_144_">
			<g id="XMLID_875_">
				<g id="XMLID_549_">
					<g id="XMLID_1576_">
						
							<path id="XMLID_2506_" style="fill:#FFFFFF;stroke:#333333;stroke-width:0.5;stroke-linecap:round;stroke-linejoin:round;stroke-miterlimit:10;" d="
							M311.1,334.847c0.032,0.418-0.77,0.714-0.942,1.065c-0.337,0.684-1.262,0.76-2.063,0.765
							c-2.967,0.019-5.933,0.039-8.899,0.058c-2.383-3.847-5.828-14.813-6.659-21.862c2.943,0.122,14.407-1.811,16.269,1.576
							C309.892,318.425,311.1,334.847,311.1,334.847z"/>
					</g>
				</g>
			</g>
		</g>
		<g id="XMLID_139_">
			<g id="XMLID_873_">
				<g id="XMLID_546_">
					<g id="XMLID_1572_">
						
							<path id="XMLID_2501_" style="fill:#FFFFFF;stroke:#333333;stroke-width:0.5;stroke-linecap:round;stroke-linejoin:round;stroke-miterlimit:10;" d="
							M241.978,332.248c0.458,2.253,0.911,2.218,3.375,2.236c2.394,0.018,4.788,0.032,7.182,0.047
							c0.045,0,1.288-14.316,1.356-15.607c0.193-3.678,1.374-9.813-2.592-11.764c-2.442-1.202-5.563-0.709-7.553,1.193
							c-0.887,0.848-1.561,1.94-2.555,2.646c-0.417,0.296-0.884,0.52-1.253,0.879c-1.137,1.106-3.474-2.669-3.2-1.074
							c0.873,5.087,2.385,16.291,3.305,21.369C240.076,332.356,241.945,332.089,241.978,332.248z"/>
					</g>
				</g>
			</g>
		</g>
		<g id="XMLID_54_">
			<g id="XMLID_56_">
				<g id="XMLID_537_">
					<g id="XMLID_76_">
						<path style="fill:#DA9872;" d="M318.274,314.569c-0.751-3.092-1.519-6.23-3.055-8.988c-0.895-1.606-2.037-3.058-2.85-4.71
							c-1.425-2.894-2.071-6.287-2.399-9.645c-0.541-5.552-1.601-14.609-2.522-20.11c-1.164-6.949-2.404-13.885-3.845-20.778
							c-1.048-5.013-2.204-10.003-3.263-15.014c-0.524-2.48-1.025-4.965-1.477-7.461c-1.244-6.869-1.413-13.859-3.322-20.552
							c-1.857-6.512-4.434-12.714-7.386-18.787c-2.836-5.834-5.565-11.1-6.165-17.73c-0.048-0.529-0.148-1.157-0.63-1.38
							c-0.198-0.092-0.425-0.092-0.644-0.091c-5.287,0.031-10.49-0.179-15.77-0.179c-1.049,0-8.958-0.812-9.51,0.011
							c-0.183,0.261-0.167,0.606-0.143,0.924c0.508,6.904,1.096,13.897,1.364,20.818c0.118,3.041,0.35,6.004,0.429,9.074
							c0.09,3.52,0.459,7.038,1.223,10.477c1.115,5.016,3.046,9.764,4.84,14.543c1.814,4.832,2.214,9.79,3.151,14.878
							c2.004,10.877,4.828,21.565,7.646,32.237c3.664,13.876,7.328,27.752,10.992,41.628c0.749,2.836,1.79,6.034,4.396,7.169
							c1.631,0.711,3.486,0.409,5.228,0.096c7.689-1.383,15.188-2.902,22.756-4.882c0.38-0.099,0.807-0.237,0.975-0.605
							C318.422,315.22,318.349,314.879,318.274,314.569z"/>
					</g>
				</g>
			</g>
		</g>
		<g id="XMLID_49_">
			<g id="XMLID_52_">
				<g id="XMLID_534_">
					<g id="XMLID_1556_">
						<path style="fill:#DA9872;" d="M260.33,249.753c-0.592,4.198-0.569,8.46-0.583,12.703c-0.029,8.535,0.135,16.845-0.574,25.287
							c-0.781,9.305-0.222,18.729,1.647,27.865c-2.921,0.824-5.905,1.389-8.919,1.688c-4.584,0.454-9.251,0.411-13.89-0.077
							c-1.411-0.319-2.864-0.591-4.237-0.567c-1.542-0.256-3.078-0.562-4.602-0.917c-2.278-8.399-1.849-17.404-1.512-26.174
							c0.708-18.392,0.838-36.808,0.39-55.209c-0.155-6.371,2.198-11.523,2.23-17.773c0.037-7.409,0.744-14.824,2.607-21.991
							c1.806-6.945,4.416-13.666,7.795-19.943c1.689-3.138,2.672-4.751,5.833-6.146c1.899-0.838,5.109-2.543,7.213-1.605
							c2.817,1.257,4.78,4.118,5.726,7.113c0.791,2.501,3.219,4.241,3.784,6.796c0.473,2.141-0.457,5.506-0.461,7.769
							c-0.013,7.433,0.776,14.967,1.161,22.392c0.421,8.131,0.838,16.351-0.565,24.361
							C262.523,240.17,261.018,244.88,260.33,249.753z"/>
					</g>
				</g>
			</g>
		</g>
		
			<path style="fill:#FFFFFF;stroke:#333333;stroke-width:0.5;stroke-linecap:round;stroke-linejoin:round;stroke-miterlimit:10;" d="
			M251.128,127.075c-0.955-2.027-2.713-3.888-4.775-4.683c-2.213-0.853-4.68,0.595-6.739,1.438c-3.634,1.488-6.915,4.566-9.99,6.977
			c-3.551,2.784-7.207,5.416-10.824,8.106c-2.774,2.063-5.824,4.531-7.947,7.336c-0.456,0.602-0.883,1.241-1.238,1.914
			c-0.087,0.165-0.167,0.334-0.245,0.504c-0.301,0.509-0.535,1.086-0.666,1.756c-0.666,3.412,1.683,7.331,3.833,9.707
			c2.431,2.686,5.393,4.78,8.298,6.861c4.712,3.374,10.262,7.261,15.914,8.659c2.229,0.551,4.835-5.855,4.189-7.577
			c-0.097-0.259-0.299-0.457-0.494-0.647c-4.426-4.287-9.369-8.365-13.337-13.165c0.051-0.043,0.101-0.087,0.152-0.13
			c3.037-2.559,6.402-4.695,9.978-6.333c2.869-1.315,5.564-2.793,8.361-4.168c2.189-1.076,4.442-2.367,5.659-4.546
			c0.864-1.548,1.108-3.388,1.136-5.178C252.432,131.565,252.118,129.176,251.128,127.075z"/>
		<g id="XMLID_40_">
			<g id="XMLID_30_">
				<g id="XMLID_524_">
					<g id="XMLID_43_">
						<path id="XMLID_2467_" style="fill:#333333;" d="M247.681,121.72c0.465,0.079,0.946,0.175,1.447,0.287
							c4.86,1.085,9.82,1.726,14.797,1.91c4.113,0.152,8.268-0.009,12.341,0.689c1.44,0.247,3.425,0.277,3.884,1.7
							c0.249,0.771,0.074,1.913,0.078,2.714c0.028,5.434-0.362,10.91,0.077,16.334c0.679,8.408-0.073,16.444,0.672,25.3
							l-37.528,0.669c0-3.495-0.303-6.997-0.503-10.484c-0.227-3.971,0.06-7.787-1-11.592c-1.519,0.496-3.095,0.799-4.683,0.901
							c-1.901-5.448-4.375-10.652-6.936-15.79c-0.402-0.807-1.725-2.536-1.61-3.464c0.143-1.157,1.672-1.848,2.51-2.458
							c2.341-1.701,4.736-3.323,7.18-4.859C241.701,121.506,244.248,121.137,247.681,121.72z"/>
					</g>
				</g>
			</g>
		</g>
		<g id="XMLID_55_">
			<g id="XMLID_21_">
				<g id="XMLID_509_">
					<g id="XMLID_22_">
						<path id="XMLID_2444_" style="fill:#333333;" d="M322.105,346.185c-6.069-0.047-12.143-0.155-18.177-0.787
							c-1.472-0.154-3.073-0.405-4.07-1.499c-0.631-0.693-0.919-1.625-1.154-2.532c-0.827-3.189-0.921-6.48-1.892-9.66
							c1.303,0.472,2.735,0.402,4.112,0.247c3.552-0.399,7.045-1.318,10.333-2.72c-0.573,0.244,1.805,3.585,2.116,3.87
							c1.4,1.278,3.462,1.969,5.245,2.501c3.313,0.988,7.276,2.073,10.169,4.008c0.934,0.624,1.844,1.457,2.042,2.563
							c0.255,1.426-0.816,2.822-2.132,3.429c-1.316,0.607-2.819,0.608-4.267,0.599C323.656,346.196,322.881,346.191,322.105,346.185
							z"/>
					</g>
				</g>
			</g>
		</g>
		<g id="XMLID_18_">
			<g id="XMLID_20_">
				<g id="XMLID_506_">
					<g id="XMLID_1522_">
						<path id="XMLID_2439_" style="fill:#333333;" d="M227.511,336.898c-0.677,0.23-1.361,0.437-2.05,0.622
							c-1.29,0.346-2.635,0.629-3.735,1.411c-3.851,2.736,0.092,5.569,3.143,5.486c5.411-0.148,10.813-0.804,16.223-0.617
							c1.967,0.068,12.271,1.062,12.253-2.436c-0.018-3.418-0.032-7.137-0.656-10.484c0.006,0.031-5.817,0.949-6.363,0.975
							c-2.175,0.106-4.274-0.462-6.175-1.582c-0.151-0.089-0.318-0.185-0.49-0.154c-0.171,0.031-0.293,0.176-0.405,0.309
							c-1.317,1.568-3.162,2.19-4.862,3.225C232.22,334.978,229.924,336.08,227.511,336.898z"/>
					</g>
				</g>
			</g>
		</g>
		<g id="XMLID_42_">
			<g id="XMLID_836_">
				<g id="XMLID_503_">
					<g id="XMLID_1518_">
						
							<path id="XMLID_2434_" style="fill:#FFFFFF;stroke:#333333;stroke-width:0.5;stroke-linecap:round;stroke-linejoin:round;stroke-miterlimit:10;" d="
							M273.242,179.239c1.069,2.933,4.436,3.4,7.113,2.211c1.553-0.69,4.663-5.964,5.468-7.32c1.765-2.973,3.31-6.077,4.713-9.235
							c2.385-5.37,4.659-11.079,5.648-16.9c0.567-3.339-0.227-6.798-0.929-10.109c-0.314-1.479-2.606-6.335-6.169-8.99
							c-1.93-1.438-5.162-2.754-9.731-3.482c-0.814,1.312-1.193,3.136-1.933,5.151c-1.044,2.842-2.099,5.733-2.253,8.806
							c-0.093,1.856,0.127,3.776,1.024,5.415c0.403,0.735,1.477,1.436,1.753,2.129c0.448,1.124-0.266,2.408-0.739,3.514
							c-2.661,6.227-4.331,12.911-4.922,19.698C272.017,173.215,272.177,176.318,273.242,179.239z"/>
					</g>
				</g>
			</g>
		</g>
		<g id="XMLID_51_">
			<g id="XMLID_862_">
				<g id="XMLID_530_">
					<g id="XMLID_46_">
						
							<path style="fill:#FFFFFF;stroke:#333333;stroke-width:0.5;stroke-linecap:round;stroke-linejoin:round;stroke-miterlimit:10;" d="
							M255.239,118.263c-0.053,0.493-0.112,1.006-0.371,1.423c-0.33,0.533-0.924,0.811-1.492,1.039
							c-1.486,0.595-3.029,1.034-4.599,1.309c-0.093,0.016-0.196,0.025-0.3,0.032c0.451,2.386,2.454,3.896,4.64,4.719
							c2.075,0.781,4.302,1.116,6.504,1.287c2.089,0.163,4.174,0.144,6.25-0.157c3.259-0.472,7.27-1.606,9.524-4.232
							c-0.26-0.061-0.521-0.123-0.774-0.2c-2.778-0.842-4.712-3.62-5.388-6.549c-0.676-2.929-0.296-6.004,0.243-8.963
							c0.428-2.352,0.957-4.727,0.772-7.114c-0.403-5.176-5.511-8.817-9.92-10.176c-2.136-0.658-4.787-0.125-6.158,1.89
							c-0.545,0.801-0.788,1.78-0.984,2.74c-0.667,3.259-0.93,6.607-0.78,9.935c0.096,2.122,0.456,4.438,1.989,5.839
							c1.173,1.072,1.438,1.662,1.262,3.296C255.517,115.675,255.378,116.969,255.239,118.263z"/>
					</g>
				</g>
			</g>
		</g>
		<g>
			<path style="fill:#333333;" d="M260.908,112.597c-0.039-0.049-0.088-0.091-0.14-0.123c-0.147-0.092-0.323-0.125-0.495-0.153
				c-0.855-0.139-1.722-0.201-2.588-0.187c-0.797,0.014-1.559,0.045-2.318-0.235c0.232,0.403,0.214,1.071,0.241,1.526
				c0.034,0.591-0.02,1.183-0.108,1.769c0.455-0.035,0.917-0.149,1.359-0.35c0.601-0.273,1.168-0.636,1.8-0.82
				c0.746-0.217,1.448-0.215,2.084-0.732c0.125-0.102,0.248-0.228,0.266-0.388C261.022,112.793,260.979,112.685,260.908,112.597z"/>
		</g>
		<g id="XMLID_26_">
			<g id="XMLID_27_">
				<path style="fill:#333333;" d="M267.602,112.062c0.345-1.058,0.681-2.118,1.078-3.166c0.31-0.82,0.664-1.27,0.458-2.182
					c-0.216-0.955-0.813-2.042-1.691-2.533c-1.634-0.915-3.193-0.239-4.004-2.362c-0.307-0.802-0.434-1.673-0.785-2.455
					c-0.587-1.307-1.816-2.28-3.182-2.519c-1.198-0.21-2.434,0.114-3.637-0.063c-2.245-0.329-6.032-2.18-4.368-5.076
					c0.366-0.638,0.983-1.099,1.645-1.42c2.631-1.276,5.731-0.48,8.63-0.103c1.772,0.23,3.578,0.297,5.293,0.795
					c3.727,1.082,6.602,4.082,8.728,7.329c0.75,1.145,1.436,2.349,1.826,3.66c1.25,4.205-0.105,9.237-0.818,13.442
					c-0.367,2.165-0.923,4.333-0.678,6.553c0.142,1.295,0.539,2.562,0.56,3.865c0.038,2.346-1.25,4.528-3.059,5.953
					c-1.539,1.212-4.435,2.495-6.393,1.751c-1.057-0.402-1.887-1.255-2.504-2.202c-1.856-2.851-1.956-6.586-0.943-9.834
					c0.619-1.985,1.613-3.828,2.469-5.724C266.775,114.557,267.195,113.311,267.602,112.062z"/>
			</g>
		</g>
		
			<path style="fill:#FFFFFF;stroke:#333333;stroke-width:0.5;stroke-linecap:round;stroke-linejoin:round;stroke-miterlimit:10;" d="
			M266.819,107.182c2.037,0.266,3.757-1.731,3.18-3.685c-0.498-1.685-2.173-2.921-3.954-2.488c-1.176,0.286-2.141,1.303-2.366,2.493
			"/>
		
			<path style="fill:#FFFFFF;stroke:#333333;stroke-width:0.5;stroke-linecap:round;stroke-linejoin:round;stroke-miterlimit:10;" d="
			M255.201,101.004c-0.18,1.163-0.649,2.28-1.353,3.223c-0.096,0.129-0.203,0.277-0.173,0.435c0.029,0.152,0.174,0.251,0.309,0.326
			c0.427,0.236,1.06,0.626,1.55,0.423"/>
		<path style="fill:#333333;" d="M259.683,101.983c-0.069-0.194-0.237-0.415-0.363-0.51c-0.091-0.068-0.209-0.09-0.322-0.085
			c-0.599,0.026-1.114,0.935-0.592,1.378c0.246,0.209,0.583,0.227,0.858,0.086c0.064-0.033,0.121-0.081,0.177-0.126
			c0.042-0.034,0.072-0.075,0.106-0.118c0.021-0.028,0.044-0.055,0.062-0.085c0.028-0.049,0.049-0.105,0.069-0.157
			c0.005-0.014,0.011-0.028,0.017-0.064c0.008-0.049,0.017-0.1,0.019-0.15C259.716,102.101,259.704,102.043,259.683,101.983z"/>
		<path style="fill:#333333;" d="M253.739,101.491c-0.02-0.279-0.195-0.54-0.466-0.661c-0.148-0.066-0.317-0.107-0.471-0.058
			c-0.386,0.12-0.54,0.932-0.381,1.244c0.245,0.48,0.997,0.284,1.223-0.109C253.72,101.774,253.749,101.63,253.739,101.491z"/>
		
			<path style="fill:#FFFFFF;stroke:#333333;stroke-width:0.5;stroke-linecap:round;stroke-linejoin:round;stroke-miterlimit:10;" d="
			M267.885,102.502c-0.475-0.255-1.083-0.183-1.544,0.098c-0.461,0.281-0.788,0.743-1.003,1.238"/>
		<g>
			<defs>
				<path id="SVGID_1_" d="M318.274,314.569c-0.751-3.092-1.519-6.23-3.055-8.988c-0.894-1.606-2.036-3.058-2.85-4.71
					c-1.425-2.894-2.071-6.287-2.399-9.645c-0.541-5.552-1.601-14.608-2.522-20.11c-1.164-6.949-2.404-13.886-3.845-20.778
					c-1.048-5.013-2.204-10.003-3.263-15.014c-0.524-2.48-1.025-4.965-1.477-7.461c-1.244-6.869-1.413-13.859-3.322-20.552
					c-1.857-6.512-4.434-12.714-7.386-18.787c-2.836-5.834-5.565-11.1-6.165-17.73c-0.048-0.529-0.148-1.157-0.63-1.38
					c-0.198-0.092-0.425-0.092-0.644-0.091c-5.286,0.031-10.49-0.179-15.77-0.179c-0.848,0-6.184-0.531-8.485-0.298
					c-0.793-0.815-1.705-1.492-2.733-1.951c-2.103-0.938-5.314,0.767-7.213,1.605c-3.161,1.396-4.144,3.009-5.833,6.146
					c-3.379,6.277-5.989,12.999-7.795,19.943c-1.864,7.166-2.57,14.582-2.607,21.991c-0.031,6.25-2.385,11.402-2.23,17.773
					c0.448,18.401,0.318,36.817-0.39,55.209c-0.337,8.771-0.767,17.776,1.512,26.174c1.524,0.355,3.06,0.661,4.602,0.917
					c1.373-0.025,2.826,0.247,4.237,0.567c4.639,0.488,9.306,0.531,13.89,0.077c3.014-0.298,5.999-0.864,8.919-1.688
					c-1.869-9.136-2.428-18.56-1.647-27.865c0.709-8.442,0.546-16.753,0.574-25.287c0.014-4.243-0.009-8.505,0.583-12.703
					c0.687-4.874,2.193-9.583,3.042-14.429c0.41-2.34,0.651-4.7,0.796-7.069c0.992,3.794,1.404,7.663,2.131,11.612
					c2.004,10.877,4.828,21.565,7.646,32.237c3.664,13.876,7.328,27.752,10.992,41.628c0.749,2.836,1.79,6.034,4.396,7.169
					c1.631,0.711,3.486,0.409,5.228,0.096c7.689-1.383,15.188-2.902,22.756-4.882c0.38-0.099,0.807-0.237,0.975-0.605
					C318.422,315.22,318.349,314.879,318.274,314.569z"/>
			</defs>
			<clipPath id="SVGID_00000020392621694170692400000002877708112663653037_">
				<use xlink:href="#SVGID_1_"  style="overflow:visible;"/>
			</clipPath>
			<g style="clip-path:url(#SVGID_00000020392621694170692400000002877708112663653037_);">
				<path style="fill:none;stroke:#D9D0C5;stroke-width:0.5;stroke-linecap:round;stroke-linejoin:round;stroke-miterlimit:10;" d="
					M293.505,325.832c-5.708-22.128-11.415-44.257-17.123-66.385c-2.323-9.006-4.646-18.012-6.772-27.067
					c-5.327-22.691-10.283-45.985-12.383-69.232c-0.153,6.714,1.545-0.545,3.447,5.725c2.555,8.424,4.206,30.716,6.091,39.315
					c2.011,9.175,6.06,17.77,8.702,26.783c2.602,8.874,3.821,18.083,5.505,27.177c3.968,21.435,10.561,42.382,19.586,62.225"/>
				<path style="fill:none;stroke:#D9D0C5;stroke-width:0.5;stroke-linecap:round;stroke-linejoin:round;stroke-miterlimit:10;" d="
					M261.033,156.744c7.03,32.916,15.262,65.575,24.672,97.891c3.814,13.095,7.826,26.153,10.614,39.504
					c1.317,6.306,2.377,12.728,4.865,18.67c2.286,5.46,5.821,11.332,3.707,16.86"/>
				<path style="fill:none;stroke:#D9D0C5;stroke-width:0.5;stroke-linecap:round;stroke-linejoin:round;stroke-miterlimit:10;" d="
					M308.63,324.762c-1.968-20.231-11.767-38.8-16.688-58.522c-2.217-8.887-3.438-17.993-5.389-26.942
					c-3.168-14.532-8.254-28.618-10.921-43.25c-2.22-12.183-2.832-24.951-8.324-36.05"/>
				<path style="fill:none;stroke:#D9D0C5;stroke-width:0.5;stroke-linecap:round;stroke-linejoin:round;stroke-miterlimit:10;" d="
					M272.938,160.711c6.87,12.198,9.065,26.373,11.825,40.097c3.699,18.397,8.603,36.527,13.503,54.641
					c2.76,10.201,5.519,20.402,8.31,30.594c1.349,4.927,2.712,9.881,3.21,14.965c0.38,3.874,0.258,7.818,1.142,11.609
					c1.406,6.03,5.31,11.472,5.461,17.661"/>
			</g>
			<g style="clip-path:url(#SVGID_00000020392621694170692400000002877708112663653037_);">
				<path style="fill:none;stroke:#D9D0C5;stroke-width:0.5;stroke-linecap:round;stroke-linejoin:round;stroke-miterlimit:10;" d="
					M248.819,164.588c-10.251,23.832-14.156,47.946-16.264,73.49c-2.25,27.259,1.051,54.682-1.847,81.911"/>
				<path style="fill:none;stroke:#D9D0C5;stroke-width:0.5;stroke-linecap:round;stroke-linejoin:round;stroke-miterlimit:10;" d="
					M252.666,161.252c-11.925,36.019-17.981,73.973-17.857,111.914c0.051,15.708,1.152,31.392,2.252,47.061"/>
				<path style="fill:none;stroke:#D9D0C5;stroke-width:0.5;stroke-linecap:round;stroke-linejoin:round;stroke-miterlimit:10;" d="
					M243.844,320.536c-0.752-5.927-1.503-11.855-2.024-17.807c-2.392-27.368,0.133-54.921,3.501-82.187
					c2.26-18.297,4.901-36.555,8.379-54.66"/>
				<path style="fill:none;stroke:#D9D0C5;stroke-width:0.5;stroke-linecap:round;stroke-linejoin:round;stroke-miterlimit:10;" d="
					M257.232,162.152c-4.758,32.795-8.235,65.801-9.452,98.918c-0.552,15.031-0.639,30.076-0.725,45.117
					c-0.042,7.23-0.083,14.461-0.125,21.691"/>
				<path style="fill:none;stroke:#D9D0C5;stroke-width:0.5;stroke-linecap:round;stroke-linejoin:round;stroke-miterlimit:10;" d="
					M257.815,197.981c0.939,13.78-2.66,27.437-3.592,41.217c-0.838,12.384,0.483,24.806,0.474,37.218
					c-0.006,8.258-0.601,16.503-1.195,24.739c-0.634,8.785-1.268,17.57-1.901,26.355"/>
			</g>
		</g>
		<path style="fill:none;stroke:#333333;stroke-width:0.5;stroke-linecap:round;stroke-linejoin:round;stroke-miterlimit:10;" d="
			M253.322,106.937c0.12,0.283,0.376,0.486,0.647,0.632c1.006,0.54,2.342,0.384,3.197-0.373"/>
		<g id="XMLID_47_">
			<g id="XMLID_702_">
				<g id="XMLID_428_">
					<g id="XMLID_1445_">
						
							<path id="XMLID_4_" style="fill:#FFFFFF;stroke:#333333;stroke-width:0.5;stroke-linecap:round;stroke-linejoin:round;stroke-miterlimit:10;" d="
							M281.764,180.263c-8.008,8.258-17.808-8.653-20.835-14.51c-3.526-6.823-6.336-15.433-8.919-22.284
							c-0.077-0.204,5.2-4.925,6.15-5.133c0,0,3.751,4.825,5.678,7.071c3.399,3.962,7.551,8.265,11.479,13.045"/>
					</g>
				</g>
			</g>
		</g>
		<g id="XMLID_17_">
			<g id="XMLID_33_">
				<g id="XMLID_989_">
					<path id="XMLID_2312_" style="fill:#D9D0C5;" d="M242.327,143.143h9.019c0.993,0,1.797-0.805,1.797-1.797V122.94
						c0-0.993-0.805-1.797-1.797-1.797h-9.778c-0.574,0-1.038,0.465-1.038,1.038v19.164
						C240.53,142.338,241.334,143.143,242.327,143.143z"/>
				</g>
			</g>
		</g>
		
			<path style="fill:#FFFFFF;stroke:#333333;stroke-width:0.5;stroke-linecap:round;stroke-linejoin:round;stroke-miterlimit:10;" d="
			M259.444,141.185c-0.049-0.711-0.793-2.72-1.048-3.381c-0.59-1.534-2.549-5.566-4.478-6.566c-0.061-0.06-0.119-0.12-0.191-0.18
			c-2.855-2.385-5.717-3.238-8.9-3.975c-1.398-0.324-1.99,1.911-0.592,2.235c2.704,0.626,5.219,1.721,7.56,3.23
			c-0.07,0.138-0.141,0.286-0.212,0.437c-2.935-1.445-5.911-2.812-9.069-3.644c-1.391-0.367-1.98,1.87-0.592,2.235
			c3.047,0.803,5.905,2.115,8.734,3.508c-0.054,0.124-0.109,0.248-0.164,0.372c-1.079-0.624-2.18-1.201-3.33-1.684
			c-0.8-0.336-1.615-0.632-2.442-0.887c-0.655-0.202-1.375-0.511-2.061-0.347c-0.633,0.152-1.011,0.971-0.712,1.564
			c0.29,0.575,1.395,0.783,1.991,0.959c0.319,0.096,0.635,0.198,0.951,0.306c0.648,0.222,1.287,0.467,1.916,0.742
			c0.924,0.403,1.809,0.887,2.68,1.401c-0.094,0.169-0.193,0.333-0.292,0.496c-1.61-0.926-3.22-1.692-5.053-2.273
			c-1.376-0.435-1.959,1.803-0.592,2.235c1.829,0.579,3.41,1.379,5.013,2.333c0.106,0.292,0.274,0.565,0.449,0.823
			c1.02,1.507,2.257,2.986,3.936,3.57"/>
		<g id="XMLID_16_">
			<g id="XMLID_91_">
				<g id="XMLID_85_">
					<path id="XMLID_2283_" style="fill:#333333;" d="M246.739,123.911c0,0.396,0.308,0.717,0.689,0.717
						c0.38,0,0.689-0.321,0.689-0.717c0-0.396-0.308-0.717-0.689-0.717C247.048,123.194,246.739,123.515,246.739,123.911z"/>
				</g>
			</g>
		</g>
		<path style="fill:#333333;" d="M296.318,153.005c-3.283-0.637-6.616-0.791-9.936-1.244c-4.138-0.564-8.233-1.316-12.39-1.722
			c-0.032-0.033-0.07-0.059-0.099-0.097c-0.23-0.302-0.294-0.703-0.344-1.086c-1.053-8.036,0.824-16.47,1.844-24.43
			c0.03-0.235,0.074-0.496,0.256-0.639c0.186-0.146,0.446-0.112,0.676-0.072c4.152,0.729,8.435,1.509,11.968,3.893
			c0.351,0.237,0.669,0.516,0.999,0.78c2.045,1.982,3.738,4.271,4.809,6.4c2.885,5.736,2.758,11.978,2.353,18.228
			C296.408,153.013,296.363,153.009,296.318,153.005z"/>
		
			<path style="fill:#FFFFFF;stroke:#333333;stroke-width:0.5;stroke-linecap:round;stroke-linejoin:round;stroke-miterlimit:10;" d="
			M280.355,178.854c-0.25,0.828-0.897,1.514-1.687,1.789c-0.79,0.275-1.704,0.133-2.382-0.371"/>
		
			<path style="fill:#FFFFFF;stroke:#333333;stroke-width:0.5;stroke-linecap:round;stroke-linejoin:round;stroke-miterlimit:10;" d="
			M227.323,154.153c-0.948-0.075-1.901-0.091-2.851-0.046"/>
		
			<path style="fill:#FFFFFF;stroke:#333333;stroke-width:0.5;stroke-linecap:round;stroke-linejoin:round;stroke-miterlimit:10;" d="
			M233.926,174.492c2.561,1.696,5.303,3.056,8.016,4.458c1.36,0.703,3.109,1.025,4.603,1.298c1.507,0.276,3.039,0.414,4.571,0.424
			c1.301,0.009,1.355-1.786,0.221-2.149c-0.968-0.31-1.935-0.29-2.927-0.319c-1.068-0.032-2.198-0.345-3.228-0.61
			c0.127-0.157,0.252-0.317,0.369-0.501c0.04-0.063,0.065-0.134,0.103-0.198c2.357,0.48,4.738,0.753,7.15,0.801
			c1.401,0.028,1.397-2.235,0-2.263c-2.126-0.042-4.22-0.263-6.296-0.662c0.05-0.187,0.096-0.376,0.14-0.565
			c2.773,0.532,5.561,0.964,8.366,1.298c1.39,0.165,1.374-2.1,0-2.263c-2.664-0.316-5.309-0.735-7.941-1.245
			c0.035-0.249,0.06-0.51,0.099-0.766c1.35,0.196,2.7,0.391,4.05,0.587c0.921,0.134,3.286,0.84,3.886-0.235
			c0.259-0.465,0.118-1.133-0.343-1.397c-0.148-0.085-0.317-0.127-0.484-0.164c-1.546-0.348-3.16-0.484-4.727-0.712
			c-0.973-0.141-2.021-0.19-2.973-0.437c-1.637-0.425-3.238-0.813-4.936-0.968c-0.834-0.076-1.747-0.193-2.581-0.09"/>
		<path style="fill:none;stroke:#DA9872;stroke-width:0.5;stroke-linecap:round;stroke-linejoin:round;stroke-miterlimit:10;" d="
			M277.079,150.131c-0.38-0.033-0.76-0.066-1.14-0.099c1.071-3.351,1.642-6.861,1.702-10.378"/>
		<path style="fill:none;stroke:#DA9872;stroke-width:0.5;stroke-linecap:round;stroke-linejoin:round;stroke-miterlimit:10;" d="
			M263.643,127.656c1.092,2.773,4.195,4.602,7.15,4.215c2.955-0.388,5.482-2.956,5.821-5.916"/>
		<path style="fill:none;stroke:#333333;stroke-width:0.5;stroke-linecap:round;stroke-linejoin:round;stroke-miterlimit:10;" d="
			M264.28,228.405c-3.168-7.471-4.573-20.172-6.337-30.361"/>
	</g>
	<g>
		<g>
			<g>
				<path style="fill:none;stroke:#D9D0C5;stroke-width:0.5;stroke-linecap:round;stroke-linejoin:round;stroke-miterlimit:10;" d="
					M170.46,268.308l-14.64,72.106c-0.717,3.531,1.888,6.851,5.376,6.851h54.507c3.528,0,6.142-3.392,5.355-6.95l-15.921-72.007"/>
			</g>
			<g>
				<path style="fill:none;stroke:#D9D0C5;stroke-width:0.5;stroke-linecap:round;stroke-linejoin:round;stroke-miterlimit:10;" d="
					M162.25,268.308l-14.64,72.106c-0.717,3.531,1.888,6.851,5.376,6.851h54.507c3.528,0,6.142-3.392,5.355-6.95l-15.92-72.007"/>
				
					<line style="fill:none;stroke:#D9D0C5;stroke-width:0.5;stroke-linecap:round;stroke-linejoin:round;stroke-miterlimit:10;" x1="155.322" y1="300.35" x2="211.883" y2="300.35"/>
			</g>
			
				<path style="fill:#FFFFFF;stroke:#333333;stroke-width:0.5;stroke-linecap:round;stroke-linejoin:round;stroke-miterlimit:10;" d="
				M230.972,241.449c-0.131-4.36,0.061-8.676,1.316-12.837c0.705-2.336,1.977-5.567,4.196-6.898c2.329-1.398,5.97-0.757,8.108,0.677
				c2.872,1.927,4.305,5.484,4.505,8.937c0.539,9.282-3.325,19.043-5.609,27.928c-0.486,1.891-1.064,3.926-2.612,5.116
				c-2.071,1.593-5.087,1.053-7.429-0.104c-0.578-0.286-1.159-0.62-1.533-1.145c-0.602-0.844-0.541-1.974-0.476-3.009
				c0.14-2.216,0.184-4.438,0.134-6.658C231.482,249.475,231.092,245.443,230.972,241.449z"/>
			
				<path style="fill:#FFFFFF;stroke:#333333;stroke-width:0.5;stroke-linecap:round;stroke-linejoin:round;stroke-miterlimit:10;" d="
				M240.376,300.394c3.195-0.772,2.96-1.304,6.049-2.404c0.005,14.178,3.813,38.48,3.748,42.558
				c-3.967,0.284-6.055,3.754-10.067,3.628c-3.146-5.048-5.804-18.096-7.582-23.548c-0.411-1.26,1.721-12.123-0.281-19.273
				C236.169,300.634,236.503,301.33,240.376,300.394z"/>
			<path style="fill:#D9D0C5;" d="M166.384,284.057c20.073,2.547,40.478,3.152,60.131-1.351c5.459-1.251,11.564-3.554,13.416-8.839
				c1.154-3.296,0.237-7.105-1.898-9.869c-6.758-8.753-21.14-6.328-30.761-6.73c-6.844-0.286-14.092-1.733-19.002-6.51
				c-3.715-3.615-5.61-8.669-7.197-13.603c-4.381-13.628-6.602-27.707-10.993-41.316c-2.765-8.569-10.428-19.366-20.845-16.591
				c-5.402,1.439-9.491,6.148-11.428,11.392c-1.937,5.244-2.01,10.987-1.625,16.564c1.248,18.069,4.181,35.684,2.611,53.907
				c-0.423,4.907-0.969,10.257,1.729,14.378c3.092,4.723,9.283,6.108,14.859,6.991C159.034,283.058,162.703,283.59,166.384,284.057z
				"/>
			<path style="fill:#DA9872;" d="M249.752,240.29c-0.982,4.26-2.032,8.883-3.187,13.1c-5.616-1.137-11.252-2.658-16.868-3.795
				c-2.886-0.585-2.916,3.938-4.111,5.749c-1.16,1.758-2.718,3.139-4.336,4.461c-3.335,2.726-8.426,3.682-12.705,3.618
				c-5.03-0.076-10.328-2.434-12.536-6.953c-1.797-3.677-1.282-8.057-0.2-12.003c3.966-14.467,14.655-26.102,26.033-35.879
				c5.622-4.83,12.671-8.364,20.23-5.717c12.191,4.268,11.693,18.1,9.58,28.614C251.06,234.428,250.426,237.364,249.752,240.29z"/>
			<path style="fill:#333333;" d="M232.782,270.686c4.612,1.063,9.345,1.55,14.022,2.24c2.463,0.363,7.5,1.764,9.824,0.043
				c2.939-2.176-1.875-3.448-4.053-4.666c-3.75-2.096-7.555-4.094-11.336-6.134c-3.492-1.884-7.977-5.901-11.54-2.015
				c-2.291,2.499-2.553,6.486-2.814,9.691C228.884,269.915,230.818,270.233,232.782,270.686z"/>
			<path style="fill:#DA9872;" d="M157.867,253.983c1.049-4.532,5.762-4.518,11.727-3.927c6.403,0.634,12.849-0.16,19.271-0.547
				c11.386-0.685,22.805-0.088,34.196,0.51c4.436,0.233,9.055,0.517,12.918,2.71c3.898,2.212,6.571,6.164,8.118,10.37
				c1.547,4.206,2.088,8.705,2.618,13.155c1.402,11.776,2.804,23.552,4.206,35.328c0.357,2.998,0.773,5.996,1.072,9
				c0.459,4.622-3.479,4.149-7.265,4.786c-5.38,0.905-10.76,1.809-16.14,2.714c-0.301,0.051-0.636,0.095-0.892-0.072
				c-0.248-0.162-0.345-0.472-0.423-0.758c-2.42-8.865-3.557-18.078-3.384-27.266c0.077-4.127,0.85-8.158,0.066-12.151
				c-0.128-0.651-1.684-9.526-2.091-9.462c-10.18,1.614-20.553,2.014-30.827,1.189c-7.262-0.583-14.652-1.838-20.987-5.434
				c-5.571-3.162-11.277-9.041-12.214-15.618C157.569,256.648,157.594,255.162,157.867,253.983z"/>
			<path style="fill:#333333;" d="M240.958,348.761c0.079,0.038,0.162,0.057,0.244,0.084h3.427
				c7.292-0.462,14.557,0.048,21.846-0.498c1.035-0.077,2.125-0.198,2.933-0.827c1.853-1.444,0.227-3.662-1.477-4.34
				c-6.028-2.401-13.89-1.99-17.884-7.95c-3.907,2.213-8.005,4.089-12.233,5.598c0.5-0.178,0.774,3.565,0.887,3.98
				C239.05,346.089,239.676,348.135,240.958,348.761z"/>
			<path style="fill:#333333;" d="M228.782,179.441c-1.098-0.194-2.22-0.195-3.335-0.196c-8.982-0.007-17.931-0.325-26.905-0.682
				c-5.036-0.2-8.483-0.056-13.401-1.059c-3.34-0.681-7.316-0.82-10.647-0.056c-0.379,0.087-0.759,0.167-1.141,0.241
				c-3.041,0.591-6.167,0.828-9.236,1.44c-3.168,0.633-6.341,1.51-9.094,3.201c-4.595,2.823-7.624,7.699-9.313,12.821
				c-1.688,5.122-2.181,10.547-2.744,15.91c-0.417,3.977-0.868,7.985-0.691,11.969c-0.249,2.009-0.312,4.035-0.04,6.055
				c0.452,3.362,1.933,6.647,4.461,8.96c1.022,0.935,2.199,1.676,3.486,2.163c2.835,3.272,3.278,7.281,4.702,11.031h31.309
				c4.215-0.563,8.49-0.796,12.616-1.869c0.487-0.126,1.032-0.317,1.223-0.782c0.247-0.601,0.105-2.24,0.158-2.972
				c0.114-1.569,0.165-3.142,0.199-4.714c0.066-3.065,0.028-6.131-0.023-9.195c-0.099-5.985-0.273-11.977,0.08-17.957
				c0.237-4.016-0.132-8.288,0.625-12.208c6.922-0.429,13.723,0.022,20.663-1.051c3.325-0.514,6.743-1.251,9.444-3.256
				C237.807,192.316,238.393,181.141,228.782,179.441z"/>
			
				<path style="fill:#FFFFFF;stroke:#333333;stroke-width:0.5;stroke-linecap:round;stroke-linejoin:round;stroke-miterlimit:10;" d="
				M226.577,181.461c1.306-1.373,3.015-2.346,4.668-3.306c3.706-2.152,7.327-4.448,10.858-6.876
				c3.296-2.267,7.017-4.269,9.925-7.024c4.787-4.535,10.863-10.217,17.931-8.718c1.348,0.286,2.755,0.819,3.515,1.969
				c1.099,1.663,0.362,4.043-1.135,5.36c-1.497,1.316-3.534,1.807-5.499,2.142c-2.332,0.398-4.902,0.726-6.884,2.14
				c-0.443,0.316-0.756,0.777-1.059,1.228c-2.48,3.685-5.006,7.169-7.737,10.623c-1.424,1.801-2.887,3.571-4.392,5.305
				c-1.241,1.43-3.488,3.086-4.323,4.756c-1.893,1.984-3.802,3.982-6.049,5.552c-3.923,2.74-12.605,5.199-13.827-1.918
				c-0.556-3.239,1.401-7.837,3.332-10.431C226.11,181.979,226.337,181.713,226.577,181.461z"/>
			<path style="fill:none;stroke:#DA9872;stroke-width:0.5;stroke-linecap:round;stroke-linejoin:round;stroke-miterlimit:10;" d="
				M172.816,198.554c-0.997,1.205-2.012,2.438-2.574,3.898c-0.325,0.845-0.489,1.742-0.651,2.632
				c-1.622,8.923-3.072,17.962-5.464,26.734"/>
			<path style="fill:none;stroke:#333333;stroke-width:0.5;stroke-linecap:round;stroke-linejoin:round;stroke-miterlimit:10;" d="
				M221.841,208.587c5.622-4.83,12.671-8.364,20.23-5.717c12.191,4.268,11.693,18.1,9.58,28.614c-0.592,2.944-1.225,5.88-1.9,8.807"
				/>
			<path style="fill:none;stroke:#333333;stroke-width:0.5;stroke-linecap:round;stroke-linejoin:round;stroke-miterlimit:10;" d="
				M232.678,215.258c-2.135,9.202-7.021,23.178-7.112,32.625"/>
			<path style="fill:none;stroke:#333333;stroke-width:0.5;stroke-linecap:round;stroke-linejoin:round;stroke-miterlimit:10;" d="
				M225.784,250.979c-9.945-1.513-16.345-0.188-29.148-0.188"/>
			
				<path style="fill:#FFFFFF;stroke:#333333;stroke-width:0.5;stroke-linecap:round;stroke-linejoin:round;stroke-miterlimit:10;" d="
				M203.916,244.023c-0.022-0.012-0.043-0.025-0.065-0.037c-3.302-1.855-7.121-2.33-10.813-2.84c-1.739-0.24-3.859-0.292-5.468-1.02
				c-1.605-0.725-3.187-1.792-4.698-2.715c-3.235-1.977-6.471-3.954-9.706-5.931c-2.612-1.596-5.24-3.2-7.982-4.551
				c-5.293-2.608-13.012-5.305-17.08,0.833c-1.29,1.946-1.887,4.389-1.418,6.676c0.812,3.958,3.85,4.961,7.226,6.046
				c2.137,0.687,4.477,0.827,6.576,1.554c1.67,0.579,3.265,1.249,4.996,1.741c4.343,1.236,8.685,2.471,13.028,3.707
				c2.49,0.708,4.983,1.418,7.525,1.906c3.389,0.652,6.855,0.907,10.303,0.76C198.725,250.052,210.078,247.552,203.916,244.023z"/>
			<g>
				<path style="fill:#333333;" d="M261.937,245.563h-62.927c-0.641,0-1.16,0.417-1.16,0.932v0.839c0,0.515,0.52,0.932,1.16,0.932
					h62.927V245.563z"/>
				
					<path style="fill:#FFFFFF;stroke:#333333;stroke-width:0.5;stroke-linecap:round;stroke-linejoin:round;stroke-miterlimit:10;" d="
					M261.864,247.591h-55.036l4.789-31.625c0.166-1.098,1.098-1.917,2.181-1.917h50.673c1.308,0,2.293,1.179,2.092,2.506
					L261.864,247.591z"/>
				<g>
					
						<line style="fill:none;stroke:#333333;stroke-width:0.5;stroke-linecap:round;stroke-linejoin:round;stroke-miterlimit:10;" x1="241.53" y1="229.848" x2="243.917" y2="231.833"/>
					
						<line style="fill:none;stroke:#333333;stroke-width:0.5;stroke-linecap:round;stroke-linejoin:round;stroke-miterlimit:10;" x1="238.393" y1="229.848" x2="240.78" y2="231.833"/>
					
						<line style="fill:none;stroke:#333333;stroke-width:0.5;stroke-linecap:round;stroke-linejoin:round;stroke-miterlimit:10;" x1="235.256" y1="229.848" x2="237.643" y2="231.833"/>
				</g>
			</g>
			
				<path style="fill:#FFFFFF;stroke:#333333;stroke-width:0.5;stroke-linecap:round;stroke-linejoin:round;stroke-miterlimit:10;" d="
				M191.564,152.805c-1.021-2.138-3.049,0.3-5.396-0.023c-2.042-0.281-3.614-0.583-5.589,0.175
				c-1.756,0.674-3.332,1.923-4.184,3.624c-0.23,0.459-0.429,0.916-0.605,1.37c-0.352,1.403-0.651,2.822-0.785,4.265
				c-0.112,1.203,0.002,2.379,0.046,3.566c0.087,0.49,0.152,0.982,0.218,1.475c-0.001,2.378,0.126,4.613-0.871,6.989
				c-0.463,1.101-1.065,2.118-1.857,2.933c-0.305,0.434-0.697,0.799-1.223,1.081c0.135,0.107,0.263,0.228,0.373,0.369
				c2.324,2.947,6.878,3.318,10.335,3.021c1.689-0.145,3.703-0.49,5.395-1.297c-1.344-1.993-0.81-4.238-0.226-6.875
				c0.051-0.23,0.34-1.047,0.603-1.868c0.949-0.508,1.791-1.259,2.466-2.322c0.919-1.447,1.407-3.123,1.762-4.799
				C192.565,161.933,192.689,155.161,191.564,152.805z"/>
			<path style="fill:#333333;" d="M176.735,165.51c0.218-1.065,0.273-2.229,0.74-3.226c0.498-1.063,1.613-1.296,2.167-2.237
				c1.159-1.971,1.101-4.311,3.54-5.428c2.521-1.154,5.611,0.495,8.21-0.471c1.644-0.611,2.817-2.316,2.799-4.07
				c-0.009-0.922-0.314-1.815-0.669-2.667c-0.425-1.02-0.96-2.046-1.852-2.698c-3.142-2.296-6.008,0.29-9.075,0.936
				c-0.708,0.149-1.453,0.143-2.127,0.406c-1.494,0.583-2.233,2.295-3.598,3.136c-1.109,0.683-2.636,0.802-3.36,1.885
				c-0.702,1.049-0.283,2.46-0.504,3.702c-0.109,0.615-0.378,1.188-0.575,1.782c-0.837,2.528-0.981,6.441,0.181,8.88
				c0.585,1.227,1.658,2.36,3.013,2.457c0.206,0.015,0.426,0.001,0.597-0.114c0.348-0.234,0.332-0.738,0.319-1.156
				C176.538,166.541,176.612,166.108,176.735,165.51z"/>
			<g>
				<defs>
					<path id="SVGID_00000088116748040975063310000007827220319738667444_" d="M196.241,185.238c0-0.098-0.011-0.195-0.017-0.293
						c-1.063-2.115-4.26-1.447-6.246-2.034c-0.402-0.119-0.758-0.295-1.079-0.511c-0.043-0.029-0.086-0.057-0.127-0.087
						c-0.686-0.502-1.184-1.213-1.492-2.068c-1.257-3.495-0.036-7.109,0.94-10.589c-0.067-0.077-0.144-0.147-0.237-0.206
						c-0.481-0.308-1.107-0.174-1.67-0.07c-2.102,0.389-4.195,0.114-6.139-0.766c-0.924-0.419-1.789-0.956-2.625-1.529
						c-0.479-0.328-1.489-1.6-2.107-1.53c-0.059,0.007-0.097,0.045-0.141,0.076c-0.151,3.01,0.318,5.703-0.904,8.614
						c-0.463,1.101-1.065,2.118-1.857,2.933c-0.39,0.555-0.91,1.008-1.688,1.303c-0.197,0.075-0.402,0.132-0.612,0.179
						c-0.083,0.029-0.158,0.067-0.244,0.093c-0.1,0.03-0.187,0.021-0.267-0.002c-1.31,0.199-2.711,0.156-3.56,1.115
						c-0.4,0.452-0.586,1.053-0.708,1.644c-0.9,4.361,1.322,9.373,4.175,12.576c2.174,2.44,5.539,4.431,8.825,4.685
						c3.128,0.242,6.085-1.064,8.703-2.645c1.148-0.693,2.236-1.371,3.263-2.112c3.091-2.229,5.68-4.545,5.811-8.573
						C196.239,185.374,196.241,185.306,196.241,185.238z"/>
				</defs>
				<clipPath id="SVGID_00000174582882723779662300000006720984412067929985_">
					<use xlink:href="#SVGID_00000088116748040975063310000007827220319738667444_"  style="overflow:visible;"/>
				</clipPath>
				<path style="clip-path:url(#SVGID_00000174582882723779662300000006720984412067929985_);fill:#333333;" d="M182.797,171.35
					c0.089,0.028,0.192,0.049,0.301,0.066c1.911,0.378,3.944,0.442,5.752-0.197c0.506,0.107,0.426,0.519,0.327,1.254
					c-0.139,1.03-0.244,2.066-0.312,3.103c-2.065-1.418-4.129-2.836-6.194-4.254C182.713,171.332,182.755,171.341,182.797,171.35z"
					/>
			</g>
			
				<path style="fill:#FFFFFF;stroke:#333333;stroke-width:0.5;stroke-linecap:round;stroke-linejoin:round;stroke-miterlimit:10;" d="
				M185.737,165.15c0.459,0.866,1.331,1.444,2.22,1.471c0.889,0.027,1.764-0.497,2.228-1.335L185.737,165.15z"/>
			
				<path style="fill:#FFFFFF;stroke:#333333;stroke-width:0.5;stroke-linecap:round;stroke-linejoin:round;stroke-miterlimit:10;" d="
				M179.951,162.334c-0.419-2.129-2.619-3.819-4.786-2.913c-2.117,0.885-2.842,4.305-1.353,6.018
				c0.765,0.881,2.042,1.281,3.173,0.996"/>
			<path style="fill:none;stroke:#333333;stroke-width:0.5;stroke-linecap:round;stroke-linejoin:round;stroke-miterlimit:10;" d="
				M176,161.461c0.672-0.076,1.374,0.21,1.801,0.734c0.427,0.524,0.565,1.27,0.355,1.912"/>
			<path style="fill:none;stroke:#DA9872;stroke-width:0.5;stroke-linecap:round;stroke-linejoin:round;stroke-miterlimit:10;" d="
				M200.959,201.432c0.201-1.492,0.402-2.983,0.603-4.474"/>
			<g>
				<defs>
					<path id="SVGID_00000155108525846714042470000002099743202827373726_" d="M157.867,253.983
						c1.049-4.532,5.762-4.518,11.727-3.927c6.403,0.634,12.849-0.16,19.271-0.547c11.386-0.685,22.805-0.088,34.196,0.51
						c4.436,0.233,9.055,0.517,12.918,2.71c3.898,2.212,6.571,6.164,8.118,10.37c1.547,4.206,2.088,8.705,2.618,13.155
						c1.402,11.776,2.804,23.552,4.206,35.328c0.357,2.999,0.773,5.998,1.072,9.004c0.341,3.434,0.132,3.331-3.271,3.839
						c-5.699,0.851-14.499,1.592-20.206,2.388c-2.507-9.971-1.938-19.975-3.149-30.184c-0.166-1.402-3.033-18.331-3.503-18.256
						c-10.18,1.614-20.553,2.014-30.827,1.189c-7.262-0.583-14.652-1.838-20.987-5.434c-5.571-3.162-11.277-9.041-12.214-15.618
						C157.569,256.648,157.594,255.162,157.867,253.983z"/>
				</defs>
				<clipPath id="SVGID_00000146497270763996326790000000468946057598826173_">
					<use xlink:href="#SVGID_00000155108525846714042470000002099743202827373726_"  style="overflow:visible;"/>
				</clipPath>
			</g>
			<path style="fill:#333333;" d="M221.955,278.292c0.007-0.021,0.014-0.045,0.02-0.072c0.074-0.293-0.09-0.81-0.124-1.114
				c-0.169-1.516-0.337-3.032-0.505-4.548c-0.071-0.641-0.198-1.373-0.751-1.704c-0.16-0.096-0.35-0.148-0.535-0.128
				c-0.224,0.025-0.425,0.154-0.581,0.316c-0.493,0.51-0.563,1.287-0.566,1.996c-0.007,1.927,0.28,3.859,0.082,5.776
				c-0.001,0.005,2.385-0.31,2.59-0.335C221.829,278.449,221.895,278.48,221.955,278.292z"/>
			<path style="fill:none;stroke:#333333;stroke-width:0.5;stroke-linecap:round;stroke-linejoin:round;stroke-miterlimit:10;" d="
				M246.46,270.711c2.108,16.833,3.862,33.711,5.258,50.619"/>
			<path style="fill:none;stroke:#333333;stroke-width:0.5;stroke-linecap:round;stroke-linejoin:round;stroke-miterlimit:10;" d="
				M165.751,270.991c1.697,1.697,3.644,3.144,5.758,4.28"/>
			<path style="fill:none;stroke:#333333;stroke-width:0.5;stroke-linecap:round;stroke-linejoin:round;stroke-miterlimit:10;" d="
				M173.708,276.469c8.575,2.97,17.327,3.094,24.143,3.387"/>
			<path style="fill:none;stroke:#333333;stroke-width:0.5;stroke-linecap:round;stroke-linejoin:round;stroke-miterlimit:10;" d="
				M187.36,157.946c-0.122,0.536-0.064,1.112,0.161,1.613c0.188,0.418,0.483,0.776,0.723,1.166c0.24,0.39,0.43,0.841,0.369,1.295
				c-0.082,0.608-0.609,1.082-1.192,1.274"/>
			<path style="fill:#333333;" d="M184.693,160.098c0,0.4-0.324,0.724-0.724,0.724c-0.4,0-0.724-0.324-0.724-0.724
				c0-0.4,0.324-0.724,0.724-0.724C184.369,159.373,184.693,159.698,184.693,160.098z"/>
			<path style="fill:#333333;" d="M191.642,159.895c0,0.4-0.324,0.724-0.724,0.724c-0.4,0-0.724-0.324-0.724-0.724
				c0-0.4,0.324-0.724,0.724-0.724C191.318,159.171,191.642,159.495,191.642,159.895z"/>
		</g>
		<g>
			<g>
				<g>
					
						<path style="fill:none;stroke:#D9D0C5;stroke-width:0.5;stroke-linecap:round;stroke-linejoin:round;stroke-miterlimit:10;" d="
						M375.513,276.282l-14.64,72.106c-0.717,3.531,1.888,6.851,5.376,6.851h54.508c3.528,0,6.142-3.392,5.355-6.95l-15.921-72.007"
						/>
				</g>
				<g>
					
						<path style="fill:none;stroke:#D9D0C5;stroke-width:0.5;stroke-linecap:round;stroke-linejoin:round;stroke-miterlimit:10;" d="
						M367.303,276.282l-14.64,72.106c-0.717,3.531,1.888,6.851,5.376,6.851h54.508c3.528,0,6.142-3.392,5.355-6.95l-15.92-72.007"/>
					
						<line style="fill:none;stroke:#D9D0C5;stroke-width:0.5;stroke-linecap:round;stroke-linejoin:round;stroke-miterlimit:10;" x1="360.375" y1="308.325" x2="416.936" y2="308.325"/>
				</g>
			</g>
			<g>
				<path style="fill:#D9D0C5;" d="M431.031,254.49c0.035,1.512,0.028,3.035-0.031,4.574c-0.116,3.043-0.365,6.117-1.316,9.011
					c-3.484,10.607-15.437,16.681-25.529,19.401c-5.47,1.474-11.155,1.821-16.793,2.008c-8.224,0.272-16.458,0.251-24.681-0.065
					c-5.095-0.195-10.904-0.881-13.839-5.05c-5.108-7.254,0.075-16.214,7.27-18.826c7.036-2.554,17.385-3.102,22.111-9.457
					c4.281-5.757,4.985-13.281,5.216-20.226c0.269-8.104,0.165-16.22-0.312-24.315c-0.509-8.634-1.411-17.528,1.283-25.747
					c2.694-8.219,10.189-15.624,18.818-15.026c7.813,0.541,13.936,7.415,16.474,14.824c2.537,7.409,2.345,15.423,2.887,23.236
					C423.681,224.576,430.671,238.958,431.031,254.49z"/>
				
					<path style="fill:#FFFFFF;stroke:#333333;stroke-width:0.5;stroke-linecap:round;stroke-linejoin:round;stroke-miterlimit:10;" d="
					M308.01,325.268c-2.376,1.238-6.712,1.152-8.399-0.276c-1.937-1.642-0.682-5.241-0.182-7.291
					c1.663-6.823,2.792-13.807,4.731-20.551c0.934-3.25,2.095-6.488,4.046-9.25c1.951-2.762,4.784-5.028,8.098-5.702
					c2.296-0.467,4.875-0.076,6.594,1.516c1.527,1.413,2.178,3.583,2.163,5.664c-0.015,2.081-0.624,4.108-1.283,6.081
					c-2.944,8.81-7.253,16.883-12.112,24.771C310.71,321.783,309.666,324.405,308.01,325.268z"/>
				<path style="fill:#333333;" d="M304.448,321.457c-2.244-0.529-4.116-1.657-5.552-3.255c-0.77,0.42-1.67,1.036-2.246,1.199
					c-1.442,0.406-2.974,0.526-4.46,0.644c-4.138,0.329-11.546-1.882-14.223,2.456c-0.546,0.885-0.686,2.099-0.074,2.94
					c0.537,0.738,1.49,1.018,2.373,1.246c4.88,1.262,9.802,2.351,14.737,3.372c2.433,0.504,4.87,0.99,7.308,1.473
					c1.944,0.385,4.091,1.458,5.484-0.492c0.322-0.451,0.526-0.974,0.719-1.494c0.522-1.409,0.983-2.839,1.429-4.273
					c0.108-0.348,0.921-3.551,1.101-3.574C308.839,321.968,306.6,321.965,304.448,321.457z"/>
				<path style="fill:#333333;" d="M401.5,243.026c-6.378,5.272-14.348-1.211-21.835-2.457c-17.34-2.886-43.335-16.166-55.503,3.051
					c-4.738,7.484-9.489,14.984-13.501,22.891c-3.892,7.671-9.12,23.563-13.207,34.094c1.983,1.374,29.378,10.56,30.268,8.91
					c5.784-10.722,12.483-35.4,17.902-46.303c6.672-13.423,20.885,6.231,24.763,11.619
					C377.113,280.656,421.475,291.147,401.5,243.026z"/>
				
					<path style="fill:#FFFFFF;stroke:#333333;stroke-width:0.5;stroke-linecap:round;stroke-linejoin:round;stroke-miterlimit:10;" d="
					M346.558,353.187c-0.013,0.015-0.025,0.029-0.038,0.044c-0.749,0.859-1.734,1.477-2.738,2.017
					c-2.097,1.127-4.699,1.998-7.013,1.014c-3.477-1.479-1.604-5.525-1.287-8.393c0.449-4.06,0.745-8.14,1.408-12.173
					c0.95-5.779,2.729-17.591,6.411-22.145c1.061-1.313,2.299-2.527,3.814-3.27c1.607-0.787,3.625-1.181,4.881,0.217
					c1.326,1.476,2.253,3.833,2.597,5.757c0.397,2.215,0.151,10.492-0.192,12.715c-0.692,4.49-1.78,8.919-3.245,13.22
					c-0.677,1.988-1.518,3.908-2.151,5.904C348.442,349.873,347.789,351.746,346.558,353.187z"/>
				<path style="fill:#333333;" d="M381.188,277.841c-2.322-2.992-4.193-6.477-6.738-9.219c-1.955-2.106-3.852-4.256-5.893-6.282
					c-4.005-3.974-8.621-8.313-14.061-10.191c-9.49-3.278-15.036,4.957-16.715,13.033c-2.402,11.55-4.804,23.101-7.205,34.651
					c-2.036,9.791-3.543,25.718-5.29,35.568c-0.007,0.039-0.014,0.077-0.021,0.116c0.976,0.387,1.987,0.685,2.997,0.967
					c2.408,0.674,4.848,1.236,7.295,1.746c1.713,0.358,3.44,0.727,5.183,0.909c2.276,0.238,15.542,1.119,15.991-1.528
					c1.418-8.365,2.287-22.809,3.153-31.245c0.434-4.222,0.86-8.445,1.353-12.66c0.482-4.12,0.974-8.126,1.671-12.225
					c0.082-0.484,0.192-1.016,0.581-1.315c0.245-0.189,0.563-0.251,0.867-0.307c5.684-1.058,10.406-1.561,16.187-0.847"/>
				<path style="fill:#333333;" d="M317.707,361.286c0.431-0.681,1.011-1.296,1.637-1.769c1.706-1.289,3.742-2.047,5.732-2.828
					c3.71-1.455,7.65-3.298,9.471-6.843c3.902,2.187,11.112,1.339,14.746-1.008c-0.313,2.419-0.377,4.859-0.462,7.294
					c-0.069,1.987-0.276,4.007-2.336,4.863c-2.903,1.206-6.166,1.88-9.175,2.798c-3.217,0.981-6.269,2.133-9.636,2.586
					c-2.252,0.302-4.569,0.763-6.847,0.492c-1.388-0.165-2.865-0.72-3.528-1.95C316.684,363.762,316.984,362.43,317.707,361.286z"/>
				
					<path style="fill:#FFFFFF;stroke:#333333;stroke-width:0.5;stroke-linecap:round;stroke-linejoin:round;stroke-miterlimit:10;" d="
					M295.261,165.525c1.772,3.845,2.895,8.175,4.294,12.179c1.896,5.425,3.828,10.923,7.085,15.657
					c4.294,6.24,10.635,9.917,18.148,10.402c9.902,0.639,21.957,2.19,30.562-3.657c1.912-1.299,3.672-2.967,4.535-5.111
					c0.863-2.145,0.651-4.83-0.968-6.481c-1.298-1.325-3.224-1.784-5.053-2.093c-8.749-1.479-17.63-1.518-26.515-1.885
					c-2.453-0.102-4.952-0.212-7.26-1.047c-4.95-1.792-8.125-6.516-10.954-10.956c-1.28-2.008-2.56-4.017-3.84-6.025
					c-1.751-2.746-3.57-5.567-6.243-7.428c-2.673-1.861-6.443-2.541-9.173-0.764c-0.873,0.568-1.625,1.412-1.824,2.434
					c-0.311,1.601,0.839,3.198,2.29,3.942c1.363,0.698,3.371,1.238,4.813,0.611C295.192,165.377,295.227,165.451,295.261,165.525z"
					/>
				
					<path style="fill:#FFFFFF;stroke:#333333;stroke-width:0.5;stroke-linecap:round;stroke-linejoin:round;stroke-miterlimit:10;" d="
					M422.693,234.801c3.497,9.323-2.879,16.017-12.449,12.899c-16.588-6.015-25.308-68.872,1.89-42.965
					C416.589,213.957,419.477,224.74,422.693,234.801z"/>
				<path style="fill:#DA9872;" d="M416.066,209.194c-1.29-3.056-2.84-5.999-4.63-8.79c-3.581-5.582-8.111-10.557-13.353-14.62
					c-3.266-2.532-7.354-3.473-11.385-4.056c-4.232-0.612-8.468-1.225-12.733-1.557c-12.864-1-25.74,0.894-38.536,2.51
					c0.011,4.454,0.023,8.907,0.034,13.361c0.01,3.769,0.606,8.076-0.466,11.69c1.26,0.253,13.92-0.892,13.988-2.13
					c-0.43,7.875-0.766,15.764-0.522,23.647c0.229,7.429,1.45,17.642,9.132,21.144c5.975,2.724,13.164,1.457,19.458,0.937
					c4.576-0.378,9.118-0.849,13.712-1.009c3.036-0.106,6.186,0.04,9.193-0.458c1.542-0.255,2.986-0.762,3.46-2.39
					c0.642-2.202-0.222-5.002-0.673-7.153c-1.024-4.879-1.687-10.657-3.628-15.426c-0.272-0.669-0.569-1.318-0.896-1.942
					c3.311-1.755,6.327-3.783,9.471-5.836c1.641-1.071,3.266-2.169,4.834-3.346c0.78-0.585,1.588-1.133,2.36-1.73
					C416.155,211.054,416.74,210.791,416.066,209.194z"/>
				
					<path style="fill:#FFFFFF;stroke:#333333;stroke-width:0.5;stroke-linecap:round;stroke-linejoin:round;stroke-miterlimit:10;" d="
					M367.877,175.113c0.75,1.092,0.5,3.038-0.052,4.147c-0.177,0.356-0.455,0.703-0.784,0.918c1.055,1.09,2.243,2.047,3.621,2.706
					c4.054,1.938,10.062,1.697,13.473-1.387c-3.135-0.806-3.282-5.561-3.324-8.124c-0.102-6.35,3.065-13.838-2.807-18.657
					c-1.314-1.079-2.737-2.081-4.301-2.765c-1.659-0.726-2.776-0.888-4.495-0.418c-1.576,0.431-2.798,0.185-4.227,1.175
					c-2.422,1.679-3.264,4.29-3.401,7.115c-0.171,3.549-0.206,7.7,1.332,10.985c0.492,1.051,1.23,2.019,2.238,2.593
					C366.044,173.908,367.268,174.226,367.877,175.113z"/>
				<path style="fill:#333333;" d="M360.604,155.648c-0.215,0.719-0.385,1.454-0.541,2.169c-0.142,0.651,9.175,1.054,9.975,1.102
					c0.505,0.03,1.036,0.055,1.488-0.171c0.452-0.226,0.774-0.797,0.549-1.25c0.7,1.785,2.053,3.243,2.66,5.137
					c0.459,1.434,0.587,3.045,1.339,4.372c0.42,0.74,1.017,1.365,1.456,2.094c1.721,2.855,0.858,6.948,3.168,9.351
					c0.191,0.199,0.413,0.387,0.682,0.45c0.228,0.053,0.467,0.01,0.693-0.049c3.47-0.902,4.366-4.125,4.874-7.281
					c0.998-6.197-0.606-11.979-3.091-17.611c-1.638-3.712-4.673-6.209-8.717-6.67c-3.735-0.426-7.526,0.797-10.424,3.163
					c-0.38,0.311-0.836,0.512-1.251,0.775C361.938,152.2,361.135,153.871,360.604,155.648z"/>
				
					<path style="fill:#FFFFFF;stroke:#333333;stroke-width:0.5;stroke-linecap:round;stroke-linejoin:round;stroke-miterlimit:10;" d="
					M372.341,163.094c0.3-1.048,1.326-1.799,2.396-1.929c2.457-0.297,4.332,1.948,3.489,4.354c-0.695,1.986-2.797,2.71-4.668,2.064"
					/>
				<path style="fill:none;stroke:#333333;stroke-width:0.5;stroke-linecap:round;stroke-linejoin:round;stroke-miterlimit:10;" d="
					M398.12,222.655c-1.806-3.577-3.377-5.92-5.093-9.586"/>
				<g>
					<defs>
						<path id="SVGID_00000000202092030709774850000009099359015491096734_" d="M378.005,154.715
							c9.245,7.588-2.689,21.346,5.114,27.07c-5.189,0.941-10.634,0.423-15.552-1.479c0.21,0.081,0.669-3.229,0.687-3.451
							c0.187-2.313-1.475-2.531-3.101-3.456c-1.008-0.574-1.747-1.542-2.239-2.593c-1.538-3.285-1.503-7.436-1.332-10.985
							c0.136-2.825,0.979-5.436,3.401-7.115c1.429-0.99,2.651-0.745,4.227-1.175c1.719-0.47,2.836-0.307,4.495,0.418
							C375.268,152.634,376.691,153.637,378.005,154.715z"/>
					</defs>
					<clipPath id="SVGID_00000056407269246581617600000002627933390235427004_">
						<use xlink:href="#SVGID_00000000202092030709774850000009099359015491096734_"  style="overflow:visible;"/>
					</clipPath>
					<g style="clip-path:url(#SVGID_00000056407269246581617600000002627933390235427004_);">
						<path style="fill:#333333;" d="M366.9,174.638c-0.008-0.056-0.011-0.117-0.021-0.172c1.466,0.091,2.801-0.079,4.224-0.417
							c0.205-0.049,0.415-0.1,0.624-0.073c0.209,0.027,0.42,0.151,0.486,0.351c0.078,0.235-0.069,0.494-0.267,0.643
							c-0.198,0.149-0.442,0.221-0.665,0.329c-0.759,0.365-1.308,1.146-2.132,1.324c-0.343,0.074-0.729,0.042-1.039,0.229
							c-0.319,0.192-0.621,0.514-0.946,0.732C367.204,177.22,367.349,175.599,366.9,174.638z"/>
					</g>
				</g>
				<path style="fill:#DA9872;" d="M287.423,318.563c-0.283-0.009-0.5,0.183-0.536,0.461c-0.105,0.812-0.21,1.624-0.316,2.437
					c-0.034,0.26,0.201,0.528,0.461,0.536c0.283,0.008,0.5-0.183,0.536-0.461c0.105-0.812,0.211-1.624,0.316-2.437
					C287.918,318.84,287.683,318.571,287.423,318.563z"/>
				<path style="fill:#DA9872;" d="M290.299,318.741c-0.054-0.108-0.166-0.214-0.283-0.249c-0.235-0.07-0.576,0.035-0.637,0.308
					c-0.164,0.736-0.328,1.472-0.492,2.207c-0.03,0.136-0.04,0.258,0.025,0.388c0.054,0.108,0.166,0.214,0.283,0.249
					c0.235,0.07,0.576-0.035,0.637-0.308c0.164-0.736,0.328-1.471,0.492-2.207C290.354,318.992,290.363,318.871,290.299,318.741z"/>
				<path style="fill:#DA9872;" d="M292.591,318.678c-0.121-0.232-0.432-0.357-0.671-0.224c-0.233,0.13-0.353,0.422-0.224,0.671
					c0.059,0.113,0.11,0.229,0.157,0.347c0.006,0.014,0.008,0.021,0.011,0.028c0.01,0.031,0.02,0.062,0.029,0.094
					c0.018,0.061,0.034,0.122,0.048,0.184c0.028,0.124,0.049,0.249,0.063,0.376c0.003,0.032,0.006,0.063,0.009,0.095
					c0,0.003,0,0.001,0.001,0.004c0,0.003,0,0.001,0,0.005c0,0.072,0.003,0.143,0.001,0.215c-0.003,0.127-0.014,0.254-0.031,0.38
					c-0.008,0.057-0.018,0.115-0.029,0.172c-0.002,0.008-0.004,0.017-0.007,0.029c-0.008,0.031-0.015,0.062-0.024,0.092
					c-0.036,0.13-0.079,0.258-0.131,0.383c-0.012,0.029-0.025,0.058-0.038,0.087c-0.003,0.008-0.043,0.091-0.023,0.05
					c0.02-0.041-0.022,0.041-0.026,0.048c-0.019,0.035-0.039,0.069-0.059,0.104c-0.133,0.225-0.103,0.547,0.136,0.694
					c0.22,0.134,0.552,0.104,0.694-0.136C293.135,321.254,293.194,319.837,292.591,318.678z"/>
				
					<path style="fill:#FFFFFF;stroke:#333333;stroke-width:0.5;stroke-linecap:round;stroke-linejoin:round;stroke-miterlimit:10;" d="
					M364.984,160.712c0.159,1.719-0.3,3.489-1.275,4.913c-0.248,0.363-0.542,0.801-0.366,1.203c0.12,0.272,0.415,0.414,0.688,0.533"
					/>
				
					<path style="fill:#FFFFFF;stroke:#333333;stroke-width:0.5;stroke-linecap:round;stroke-linejoin:round;stroke-miterlimit:10;" d="
					M363.626,169.475c0.154,0.193,0.377,0.321,0.609,0.405c0.514,0.186,1.088,0.174,1.611,0.014c0.522-0.16,0.995-0.461,1.398-0.83"
					/>
				<path style="fill:#333333;" d="M368.842,162.727c0,0.441-0.358,0.799-0.799,0.799c-0.441,0-0.799-0.358-0.799-0.799
					c0-0.441,0.358-0.799,0.799-0.799C368.484,161.928,368.842,162.286,368.842,162.727z"/>
				<path style="fill:#333333;" d="M362.641,162.917c0,0.441-0.358,0.799-0.799,0.799c-0.441,0-0.799-0.358-0.799-0.799
					c0-0.441,0.358-0.799,0.799-0.799C362.283,162.119,362.641,162.476,362.641,162.917z"/>
				
					<path style="fill:#FFFFFF;stroke:#333333;stroke-width:0.5;stroke-linecap:round;stroke-linejoin:round;stroke-miterlimit:10;" d="
					M375.586,162.553c-0.464,0.102-0.921,0.268-1.31,0.542c-0.389,0.274-0.708,0.662-0.843,1.118"/>
				<path style="fill:none;stroke:#333333;stroke-width:0.5;stroke-linecap:round;stroke-linejoin:round;stroke-miterlimit:10;" d="
					M348.766,207.347c0.389-2.15,0.778-4.301,1.166-6.451"/>
			</g>
			<g>
				<g>
					<path style="fill:#D9D0C5;" d="M269.917,176.13l20.78,0.72c0.299,0.01,0.551-0.224,0.561-0.523l1.053-30.419
						c0.01-0.299-0.224-0.551-0.523-0.561l-20.78-0.72c-0.3-0.01-0.551,0.224-0.561,0.523l-1.053,30.419
						C269.383,175.869,269.618,176.12,269.917,176.13z"/>
				</g>
			</g>
			
				<rect x="100.857" y="247.816" style="fill:#FFFFFF;stroke:#333333;stroke-width:0.5;stroke-linecap:round;stroke-linejoin:round;stroke-miterlimit:10;" width="363.845" height="4.984"/>
			<g>
				<path style="fill:#333333;" d="M316.817,247.899h63.889c0.84,0,1.521-0.681,1.521-1.521l0,0c0-0.84-0.681-1.521-1.521-1.521
					h-63.889c-0.84,0-1.521,0.681-1.521,1.521l0,0C315.296,247.218,315.977,247.899,316.817,247.899z"/>
				<path style="fill:#333333;" d="M315.087,247.899h57.196l-4.977-32.866c-0.173-1.141-1.142-1.992-2.267-1.992h-52.663
					c-1.359,0-2.383,1.226-2.174,2.604L315.087,247.899z"/>
				
					<circle style="fill:#333333;stroke:#FFFFFF;stroke-width:0.5;stroke-linecap:round;stroke-linejoin:round;stroke-miterlimit:10;" cx="338.468" cy="228.123" r="2.738"/>
			</g>
			
				<path style="fill:#FFFFFF;stroke:#333333;stroke-width:0.5;stroke-linecap:round;stroke-linejoin:round;stroke-miterlimit:10;" d="
				M295.297,165.352c-2.179,0.19-4.383,0.38-6.544,0.045c-0.436-0.067-0.89-0.166-1.223-0.455c-0.333-0.289-0.491-0.825-0.231-1.181
				c0.29-0.398,0.879-0.365,1.371-0.333c1.888,0.121,3.812-0.399,5.382-1.455"/>
			
				<path style="fill:#FFFFFF;stroke:#333333;stroke-width:0.5;stroke-linecap:round;stroke-linejoin:round;stroke-miterlimit:10;" d="
				M408.028,228.838c-5.102-1.868-10.229-3.661-15.356-5.458c-2.872-1.007-5.699-2.142-8.586-3.105
				c-2.747-0.916-5.629-1.98-8.514-1.063c-0.507,0.161-1.021,0.387-1.346,0.807c-1.022,1.317,0.639,1.647,1.587,1.791
				c-0.719-0.059-1.343,0.738-1.173,1.439c0.17,0.701,1.01,1.13,1.7,0.92c-0.413,0.287-0.875,0.671-0.832,1.173
				c0.056,0.658,0.885,0.896,1.541,0.969c-0.747,0.101-1.005,0.98-0.593,1.523c0.422,0.556,1.183,0.707,1.838,0.784
				c2.195,0.258,4.411,0.339,6.619,0.242c0.12-0.005,0.243-0.01,0.355,0.03c0.103,0.037,0.189,0.11,0.272,0.18
				c1.734,1.475,3.522,2.886,5.358,4.231c1.724,1.263,3.205,3.071,4.761,4.554c2.581,2.46,5.131,5.099,7.904,7.313
				c0.374,0.299,0.749,0.598,1.129,0.889c3.124,2.384,7.06,4.234,11.008,4.579c3.88,0.339,8.564-1.658,9.247-5.95
				c0.195-1.224,0.019-2.475-0.22-3.691c-0.308-1.572-0.721-3.123-1.235-4.64c-0.168-0.497-0.352-0.999-0.672-1.415
				c-0.568-0.737-1.481-1.104-2.35-1.438"/>
			<path style="fill:none;stroke:#DA9872;stroke-width:0.5;stroke-linecap:round;stroke-linejoin:round;stroke-miterlimit:10;" d="
				M327.896,309.548c3.407-8.774,4.848-18.02,8.709-26.639c2.82-6.297,4.659-12.769,8.992-18.307
				c1.724-2.203,3.53-4.475,6.026-5.738c2.096-1.061,4.494-1.314,6.831-1.549"/>
			<path style="fill:none;stroke:#DA9872;stroke-width:0.5;stroke-linecap:round;stroke-linejoin:round;stroke-miterlimit:10;" d="
				M364.132,279.68c-1.205,0.197-2.409,0.394-3.614,0.591"/>
			<g>
				<path style="fill:#DA9872;" d="M326.471,357.917c-0.456-0.764-1.073-1.413-1.803-1.92c-0.215-0.15-0.565-0.046-0.684,0.179
					c-0.135,0.255-0.051,0.524,0.179,0.684c0.04,0.028,0.08,0.056,0.119,0.085c0.017,0.013,0.034,0.025,0.051,0.038
					c0.067,0.062,0.144,0.116,0.213,0.176c0.147,0.128,0.288,0.264,0.421,0.406c0.066,0.071,0.131,0.144,0.194,0.219
					c0.031,0.037,0.062,0.075,0.093,0.113c0.012,0.015,0.024,0.031,0.036,0.046c-0.008-0.01-0.01-0.012-0.016-0.019
					c0.12,0.16,0.231,0.326,0.333,0.498c0.134,0.225,0.456,0.327,0.684,0.179C326.518,358.455,326.615,358.157,326.471,357.917z"/>
				<path style="fill:#DA9872;" d="M325.275,357.924L325.275,357.924C325.257,357.901,325.217,357.853,325.275,357.924z"/>
			</g>
			<path style="fill:#DA9872;" d="M329.243,356.978c-0.545-0.818-1.226-1.517-2.024-2.091c-0.1-0.072-0.272-0.082-0.385-0.05
				c-0.116,0.032-0.242,0.122-0.299,0.23c-0.137,0.259-0.048,0.52,0.179,0.684c0.044,0.032,0.088,0.064,0.131,0.096
				c0.003,0.002,0.023,0.018,0.038,0.029c0.006,0.005,0.013,0.01,0.016,0.013c0.085,0.068,0.169,0.137,0.251,0.208
				c0.164,0.142,0.322,0.292,0.472,0.448c0.147,0.152,0.287,0.311,0.421,0.476c0.017,0.021,0.034,0.042,0.051,0.063
				c0.001,0.001,0.008,0.01,0.012,0.015c0.01,0.013,0.025,0.033,0.029,0.039c0.016,0.022,0.033,0.043,0.049,0.065
				c0.067,0.092,0.132,0.186,0.196,0.28c0.145,0.217,0.448,0.332,0.684,0.179C329.28,357.523,329.398,357.211,329.243,356.978z"/>
			<path style="fill:#DA9872;" d="M331.624,356.227c-0.156-0.191-0.31-0.384-0.463-0.578c-0.009-0.012-0.016-0.02-0.02-0.025
				c-0.014-0.019-0.029-0.038-0.043-0.057c-0.038-0.049-0.075-0.098-0.112-0.147c-0.079-0.105-0.158-0.21-0.235-0.315
				c-0.297-0.404-0.583-0.816-0.859-1.235c-0.144-0.218-0.449-0.331-0.684-0.179c-0.218,0.14-0.333,0.45-0.179,0.684
				c0.583,0.886,1.215,1.74,1.888,2.561c0.166,0.203,0.537,0.185,0.707,0C331.822,356.719,331.802,356.444,331.624,356.227z"/>
		</g>
		<g>
			<path style="fill:none;stroke:#333333;stroke-linecap:round;stroke-linejoin:round;stroke-miterlimit:10;" d="M425.777,252.799
				h-49.167l-10.678,91.759c-0.639,6.331,6.022,12.103,13.966,12.103h64.981c7.824,0,13.223-5.609,11.42-11.867L425.777,252.799z"/>
		</g>
		<g>
			<path style="fill:none;stroke:#333333;stroke-linecap:round;stroke-linejoin:round;stroke-miterlimit:10;" d="M197.727,252.799
				h-49.166l-30.523,91.995c-1.802,6.258,3.596,11.867,11.421,11.867h64.981c7.944,0,14.605-5.773,13.966-12.103L197.727,252.799z"
				/>
		</g>
	</g>
	<g>
		<g>
			
				<path style="fill:#FFFFFF;stroke:#333333;stroke-width:0.5;stroke-linecap:round;stroke-linejoin:round;stroke-miterlimit:10;" d="
				M177.292,247.566h-55.036l4.789-31.625c0.166-1.098,1.098-1.917,2.181-1.917H179.9c1.308,0,2.293,1.179,2.092,2.506
				L177.292,247.566z"/>
			<path style="fill:#DA9872;" d="M166.186,221.161c0.254-1.703,0.54-3.399,0.911-5.079h-36.299c-1.008,0-1.877,0.753-2.032,1.761
				l-0.51,3.319H166.186z"/>
			<path style="fill:#D9D0C5;" d="M163.94,230.831c0.355,0,0.644,0.1,0.874,0.26c0.139-0.88,0.266-1.763,0.387-2.647h-38.063
				l-0.367,2.387H163.94z"/>
			<path style="fill:#D9D0C5;" d="M163.94,233.969h-37.65l-1.984,12.92h37.723c0.734-4.326,1.447-8.656,2.289-12.963
				C164.2,233.953,164.075,233.969,163.94,233.969z"/>
			<path style="fill:#DA9872;" d="M179.517,221.161l0.427-2.778c0.187-1.218-0.73-2.301-1.949-2.301h-7.673
				c-0.399,1.679-0.708,3.375-0.977,5.079H179.517z"/>
			<path style="fill:#D9D0C5;" d="M165.812,243.293c-0.204,1.199-0.41,2.398-0.613,3.597h10.368l0.552-3.597H165.812z"/>
			<path style="fill:#D9D0C5;" d="M176.601,240.154l1.798-11.711h-10.058c-0.281,2.1-0.584,4.196-0.989,6.272
				c-0.353,1.809-0.678,3.623-0.997,5.438H176.601z"/>
			
				<path style="fill:#FFFFFF;stroke:#333333;stroke-width:0.5;stroke-linecap:round;stroke-linejoin:round;stroke-miterlimit:10;" d="
				M177.366,245.538h-62.927c-0.641,0-1.16,0.417-1.16,0.932v0.839c0,0.515,0.52,0.932,1.16,0.932h62.927V245.538z"/>
		</g>
		
			<path style="fill:#FFFFFF;stroke:#333333;stroke-width:0.5;stroke-linecap:round;stroke-linejoin:round;stroke-miterlimit:10;" d="
			M126.523,248.448c-6.278,0.12-11.915-1.467-17.748-3.713c-1.274-0.49-2.646-1.063-3.318-2.251
			c-0.777-1.374-0.358-3.086,0.081-4.602c1.413-4.886,2.826-9.772,4.238-14.658c0.06-0.207,0.127-0.426,0.289-0.57
			c0.333-0.294,0.852-0.119,1.247,0.083c1.989,1.014,3.79,2.352,5.651,3.585c5.404,3.58,11.334,6.279,17.401,8.521
			c3.113,1.15,6.269,2.181,9.439,3.164c2.624,0.813,5.617,2.212,8.367,2.348c3.531,0.173,7.18-1.317,10.544,0.373
			c2.584,1.298,3.69,3.988,2.784,6.717c-0.027,0.08-0.057,0.163-0.118,0.222c-0.085,0.082-0.211,0.101-0.328,0.116
			c-1.639,0.212-3.165,0.331-4.806,0.331c-5.965-0.069-11.852,0.03-17.793,0.03C137.143,248.245,131.833,248.346,126.523,248.448z"
			/>
		<g>
			<g>
				<path style="fill:none;stroke:#333333;stroke-width:0.5;stroke-linecap:round;stroke-linejoin:round;stroke-miterlimit:10;" d="
					M66.224,297.753l-14.64,72.106c-0.717,3.531,1.888,6.851,5.376,6.851h54.507c3.528,0,6.142-3.392,5.355-6.95l-15.921-72.007"/>
			</g>
			<g>
				<path style="fill:none;stroke:#333333;stroke-width:0.5;stroke-linecap:round;stroke-linejoin:round;stroke-miterlimit:10;" d="
					M58.015,297.753l-14.64,72.106c-0.717,3.531,1.888,6.851,5.376,6.851h54.507c3.528,0,6.142-3.392,5.355-6.95l-15.921-72.007"/>
			</g>
			<path style="fill:#D9D0C5;" d="M38.065,223.399c0.016-0.075,0.032-0.151,0.048-0.226c1.425-6.687,3.867-13.554,9.1-17.954
				c5.233-4.4,13.909-5.27,18.593-0.29c2.355,2.504,3.299,5.864,4.659,8.919c3.035,6.816,2.08,13.198,3.253,20.202
				c1.575,9.401,4.537,18.938,9.887,26.929c3.034,4.532,6.797,7.98,11.196,11.159c4.67,3.375,11.268,2.921,16.845,3.502
				c5.795,0.604,12.631,2.463,15.804,7.822c4.387,7.409,1.444,17.754-5.423,22.414c-4.851,3.291-10.823,4.417-16.639,5.148
				c-12.324,1.548-24.774,1.519-37.171,1.232c-9.205-0.214-21.944,0.808-28.534-6.678c-1.248-1.418-2.405-2.944-3.162-4.675
				c-1.688-3.857-1.23-8.262-0.932-12.462C37.13,266.76,33.593,244.663,38.065,223.399z"/>
			
				<line style="fill:none;stroke:#333333;stroke-width:0.5;stroke-linecap:round;stroke-linejoin:round;stroke-miterlimit:10;" x1="51.465" y1="330.013" x2="108.025" y2="330.013"/>
		</g>
		
			<path style="fill:#FFFFFF;stroke:#333333;stroke-width:0.5;stroke-linecap:round;stroke-linejoin:round;stroke-miterlimit:10;" d="
			M213.785,357.202c0.021-1.112,1.275-1.401,0.78-2.03c-4.948-6.287-10.689-14.516-14.894-20.836
			c-0.147,0.151-10.757,8.849-14.23,12.866c4.232,6.21,14.401,13.73,19.307,18.439C208.296,363.523,210.553,359.764,213.785,357.202
			z"/>
		<path style="fill:#333333;" d="M233.078,350.145c0.147-1.234-0.421-2.271-2.148-2.884c-0.237-0.084-0.506-0.076-0.74,0.016
			c-3.257,1.266-5.964,3.576-9.149,4.956c-2.533,1.097-5.552,1.544-8.005,0.278c-0.12-0.063-11.598,10.016-11.285,10.659
			c1.892,3.88,7.455,8.184,8.994,9.255c4.632-3.858,9.17-7.825,13.646-11.86C225.736,359.353,232.636,353.854,233.078,350.145z"/>
		<path style="fill:#333333;" d="M188.092,359.619c3.307-3.264,7.284-5.962,10.539-9.5c1.114-1.211,12.158-13.145,11.507-13.945
			c-9.173-11.286-20.506-20.189-30.522-30.618c-10.659-11.099-21.662-22.449-35.628-28.913c-6.576-3.044-13.69-4.923-20.911-5.525
			c-4.522-0.377-9.072-0.256-13.601-0.531c-4.987-0.303-9.932-1.084-14.851-1.955c-2.546-0.451-5.165-0.925-7.695-0.395
			c-2.53,0.53-4.982,2.328-5.448,4.871c-0.418,2.278,0.796,4.511,2.045,6.462c3.575,5.583,7.884,12.25,13.905,15.089
			c6.698,3.158,13.8,5.563,20.658,8.351c9.724,3.952,19.404,8.234,28.166,14.073c6.989,4.657,17.345,10.094,19.969,18.669
			c0.39,1.274,0.619,2.632,1.357,3.742c1.535,2.309,5.012,3.176,5.7,5.862c0.207,0.808,0.111,1.665,0.262,2.486
			c0.359,1.946,2.007,3.353,3.55,4.591c3.342,2.682,6.613,5.665,10.158,8.046C187.527,360.186,187.807,359.901,188.092,359.619z"/>
		
			<path style="fill:#FFFFFF;stroke:#333333;stroke-width:0.5;stroke-linecap:round;stroke-linejoin:round;stroke-miterlimit:10;" d="
			M74.454,187.798c0.017-0.168,0.034-0.337,0.049-0.505c0.37-3.884,0.022-7.401,1.889-10.896c1.749-3.274,6.847-7.99,11.004-7.406
			c3.667,0.515,5.823,6.303,6.935,9.212c1.124,2.939,2.1,7.164,0.834,10.217c-1.123,2.709-5.915,2.411-6.01,5.549
			c-0.15,4.943-0.3,9.887-0.45,14.83c-0.025,0.81-0.055,1.644-0.396,2.381c-1.471,3.178-11.593,1.059-13.968-0.451
			c-4.191-2.663-2.817-6.766-1.862-10.927C73.388,195.846,74.047,191.834,74.454,187.798z"/>
		<path style="fill:#DA9872;" d="M94.995,262.147c0.341-3.757,1.008-7.498,1.673-11.216c1.07-5.982,1.905-11.89,3.111-17.792
			c0.679-3.324-0.1-6.819-1.605-9.864c-1.786-3.613-5.831-6.481-6.627-10.329c-0.544-2.629,2.209-2.353,3.192-3.933
			c1.451-2.333-0.247-5.105-2.911-5.853c-7.487-2.102-15.816-4.192-22.862,0.217c-6.369,3.986-9.77,10.918-12.317,17.707
			c-5.961,15.894-10.501,34.111-9.473,51.161c0.16,2.662,0.431,5.358,1.405,7.843c1.126,2.872,3.128,5.306,5.098,7.688
			c1.493,1.805,3.053,3.663,5.168,4.685c2.057,0.994,4.458,1.091,6.715,0.721c5.438-0.89,9.948-4.262,13.738-8.057
			c4.189-4.189,8.672-7.403,13.359-11.009c0.606-0.466,1.226-0.948,1.62-1.603c0.659-1.098,0.569-2.468,0.517-3.747
			C94.706,266.554,94.795,264.347,94.995,262.147z"/>
		
			<path style="fill:#FFFFFF;stroke:#333333;stroke-width:0.5;stroke-linecap:round;stroke-linejoin:round;stroke-miterlimit:10;" d="
			M147.187,367.637c0.119-0.417,0.208-0.822,0.264-1.207c0.806-5.504,1.611-11.008,2.417-16.512
			c0.364-2.486,0.659-5.268-0.837-7.287c-1.546-2.084-4.49-2.577-7.068-2.281c-2.486,0.286-4.987,1.207-6.693,3.037
			c-2.88,3.089-1.347,7.599-1.439,11.395c-0.111,4.561-0.177,9.123-0.3,13.684c-0.025,0.918,0.436,2.013,0.418,2.931
			c-0.031,1.572-1.467,1.702-0.433,2.894C139.031,380.649,145.64,373.072,147.187,367.637z"/>
		<path style="fill:#333333;" d="M163.532,379.083c0.055-0.031,0.107-0.064,0.159-0.1c0.884-0.618,1.31-1.757,1.018-2.79
			c-0.411-1.452-1.892-2.118-3.239-2.66c-3.4-2.296-9.119-2.387-11.838-5.577c-0.579-0.679-1.019-1.498-1.747-2.014
			c-1.451-1.028-14.387-1.649-14.907,0.387c-0.97,3.797-0.87,6.349-0.758,8.865c0.025,0.551,0.443,1.008,0.993,1.084
			c5.426,0.745,10.868,1.37,16.317,1.916c2.886,0.289,5.774,0.568,8.665,0.808C159.698,379.125,162.153,379.867,163.532,379.083z"/>
		<path style="fill:#333333;" d="M130.973,353.935c2.178,0.122,4.338,0.277,6.535,0.277c7.923-0.323,15.865-0.165,23.785-0.483
			c0.676-5.581,0.809-15.435,0.934-17.05c0.626-8.037,1.463-18.91,0.739-26.945c-0.804-8.919-1.342-17.958-3.695-26.643
			c-1.051-3.879-2.41-7.58-4.61-10.948c-2.184-3.345-3.467-6.54-7.198-8.577c-3.397-1.854-7.398-2.384-11.267-2.157
			c-15.892,0.932-29.904,9.971-45.338,13.264c-8.63,1.841-16.225,5.088-25.08,6.281c-2.847,0.384-16.695,3.056-17.587-1.691
			c1.54,8.216,5.42,16.318,12.195,21.276c10.116,7.403,24.319,5.96,36.076,4.605c11.718-1.353,23.753-3.665,34.505-8.247
			c-0.021,7.138,0.667,13.968,0.426,21.167c-0.07,2.068-0.154,4.2-1.024,6.077c-0.565,1.219-1.441,2.278-1.977,3.51
			c-1.727,3.968,0.406,8.61-0.422,12.858c-0.909,4.668-1.903,8.446-1.006,13.278C128.317,353.799,129.648,353.861,130.973,353.935z"
			/>
		<path style="fill:#333333;" d="M88.766,164.656c-0.421,0.079-0.837,0.229-1.228,0.451c-1.132,0.646-2.161,1.532-3.219,2.299
			c0.049-0.356,0.524-0.68,0.314-0.971c-0.056-0.078-0.149-0.118-0.239-0.155c-1.433-0.593-2.059-0.119-2.841,1.022
			c-0.438,0.639-0.9,1.25-1.393,1.848c-0.326,0.396-1.251,1.137-1.358,1.629c0.084-0.384-0.359-0.718-0.75-0.68
			c-0.391,0.039-0.712,0.318-0.992,0.594c-2.228,2.197-3.759,5.09-4.322,8.168c-0.554,3.026-0.58,9.853,3.29,10.786
			c2.801,0.676,5.978-1.036,6.933-3.737c0.407-1.152,0.504-2.516,1.434-3.315c0.558-0.48,1.384-0.717,1.674-1.391
			c0.221-0.514,0.042-1.1,0.023-1.659c-0.118-3.418,3.81-3.902,5.798-5.601c1.433-1.225,3.005-3.851-0.021-4.044
			c1.213,0.078,1.04-2.904,0.726-3.473C91.803,164.99,90.249,164.38,88.766,164.656z"/>
		<path style="fill:#DA9872;" d="M79.545,219.23c-0.563-1.088-1.086-2.197-1.575-3.318c-0.95-2.176-1.788-4.444-1.944-6.811
			c-0.14-2.122,0.37-5.22,2.001-6.793c1.62-1.563,5.43-1.163,7.464-0.864c5.644,0.83,12.741,3.584,17.175,6.993
			c3.301,2.538,6.947,5.717,9.295,9.195c2.486,3.682,3.841,6.978,8.02,9.327c-1.712,2.516-2.31,5.596-3.154,8.52
			c-0.862,2.991-3.08,11.409-6.298,11.814c-3.412,0.429-9.118-5.417-11.453-7.415c-2.356-2.015-4.712-4.03-7.068-6.045
			c-2.732-2.337-5.478-4.688-7.782-7.442C82.391,224.197,80.859,221.771,79.545,219.23z"/>
		
			<path style="fill:#FFFFFF;stroke:#333333;stroke-width:0.5;stroke-linecap:round;stroke-linejoin:round;stroke-miterlimit:10;" d="
			M85.577,186.699c-2.129,0-3.854-1.713-3.854-3.827c0-2.059,1.891-3.766,3.923-3.655c1.92,0.105,3.145,1.125,3.145,2.872"/>
		<g>
			<defs>
				<path id="SVGID_00000114056802609177185170000000937400774248021154_" d="M74.454,187.798c0.017-0.168,0.034-0.337,0.049-0.505
					c0.37-3.884,0.022-7.401,1.889-10.896c1.749-3.274,6.847-7.99,11.004-7.406c3.667,0.515,5.823,6.303,6.935,9.212
					c1.124,2.939,2.1,7.164,0.834,10.217c-1.123,2.709-5.915,2.411-6.01,5.549c-0.15,4.943-0.3,9.887-0.45,14.83
					c-0.025,0.81-0.055,1.644-0.396,2.381c-1.471,3.178-11.593,1.059-13.968-0.451c-4.191-2.663-2.817-6.766-1.862-10.927
					C73.388,195.846,74.047,191.834,74.454,187.798z"/>
			</defs>
			<clipPath id="SVGID_00000029760758139525585570000000375862984484469680_">
				<use xlink:href="#SVGID_00000114056802609177185170000000937400774248021154_"  style="overflow:visible;"/>
			</clipPath>
			<path style="clip-path:url(#SVGID_00000029760758139525585570000000375862984484469680_);fill:#333333;" d="M84.483,193.946
				c0.036,0.077,0.084,0.15,0.139,0.214c0.183,0.216,0.441,0.354,0.7,0.469c1.362,0.603,5.025,1.186,6.22-0.014
				c0.328-0.329,0.501-0.847,0.315-1.273c-0.092-0.209-0.259-0.376-0.442-0.513c-1.51-1.125-3.595,0.309-5.349,0.092
				c-0.303-0.037-0.61-0.095-0.912-0.051c-0.302,0.044-0.608,0.215-0.715,0.502C84.37,193.557,84.397,193.764,84.483,193.946z"/>
		</g>
		<path style="fill:none;stroke:#DA9872;stroke-width:0.5;stroke-linecap:round;stroke-linejoin:round;stroke-miterlimit:10;" d="
			M160.86,290.428c2.221,13.599,1.833,27.007,1.368,40.752"/>
		<path style="fill:none;stroke:#DA9872;stroke-width:0.5;stroke-linecap:round;stroke-linejoin:round;stroke-miterlimit:10;" d="
			M131.644,315.76c0.053-4.12-0.578-11.778-0.288-15.888c0.282-3.986,0.479-7.943,1.091-11.908"/>
		<path style="fill:none;stroke:#DA9872;stroke-width:0.5;stroke-linecap:round;stroke-linejoin:round;stroke-miterlimit:10;" d="
			M85.081,275.918c9.934-2.47,13.824-3.19,19.553-5.483c0.516-0.207,2.273-0.816,2.791-1.018"/>
		<path style="fill:none;stroke:#333333;stroke-width:0.5;stroke-linecap:round;stroke-linejoin:round;stroke-miterlimit:10;" d="
			M112.585,218.65c-2.592-3.326-5.36-6.549-8.628-9.214c-3.268-2.665-7.073-4.763-11.207-5.593"/>
		<path style="fill:none;stroke:#333333;stroke-width:0.5;stroke-linecap:round;stroke-linejoin:round;stroke-miterlimit:10;" d="
			M98.555,239.725c-0.878-0.542-1.627-1.266-2.35-2.001c-3.506-3.559-6.613-7.505-9.244-11.743"/>
		
			<path style="fill:#FFFFFF;stroke:#333333;stroke-width:0.5;stroke-linecap:round;stroke-linejoin:round;stroke-miterlimit:10;" d="
			M84.572,181.162c0.392-0.27,0.921-0.326,1.361-0.145c0.44,0.181,0.776,0.594,0.865,1.061"/>
		
			<path style="fill:#FFFFFF;stroke:#333333;stroke-width:0.5;stroke-linecap:round;stroke-linejoin:round;stroke-miterlimit:10;" d="
			M91.83,176.982c0.221,1.586,1.221,3.045,2.621,3.825c0.221,0.123,0.48,0.268,0.514,0.519c0.018,0.132-0.034,0.262-0.095,0.38
			c-0.265,0.504-0.744,0.89-1.292,1.042"/>
		
			<path style="fill:#FFFFFF;stroke:#333333;stroke-width:0.5;stroke-linecap:round;stroke-linejoin:round;stroke-miterlimit:10;" d="
			M91.884,184.637c0.547,0.754,1.735,0.937,2.484,0.383"/>
		<path style="fill:#333333;" d="M91.296,179.926c0,0.395-0.32,0.714-0.714,0.714c-0.395,0-0.714-0.32-0.714-0.714
			c0-0.394,0.32-0.714,0.714-0.714C90.977,179.212,91.296,179.532,91.296,179.926z"/>
		<path style="fill:#333333;" d="M95.083,177.697c0,0.394-0.32,0.714-0.714,0.714c-0.394,0-0.714-0.32-0.714-0.714
			c0-0.394,0.32-0.714,0.714-0.714C94.763,176.982,95.083,177.302,95.083,177.697z"/>
		<path style="fill:#D9D0C5;" d="M53.015,251.857c0,0.856-0.694,1.55-1.55,1.55c-0.856,0-1.55-0.694-1.55-1.55s0.694-1.55,1.55-1.55
			C52.321,250.307,53.015,251.001,53.015,251.857z"/>
		<path style="fill:#D9D0C5;" d="M75.268,235.6c0,0.856-0.694,1.55-1.55,1.55c-0.856,0-1.55-0.694-1.55-1.55
			c0-0.856,0.694-1.55,1.55-1.55C74.574,234.05,75.268,234.744,75.268,235.6z"/>
		<path style="fill:#D9D0C5;" d="M66.827,245.091c0,0.856-0.694,1.55-1.55,1.55c-0.856,0-1.55-0.694-1.55-1.55
			c0-0.856,0.694-1.55,1.55-1.55C66.134,243.541,66.827,244.235,66.827,245.091z"/>
		<path style="fill:#D9D0C5;" d="M59.275,232.695c0,0.856-0.694,1.55-1.55,1.55s-1.55-0.694-1.55-1.55c0-0.856,0.694-1.55,1.55-1.55
			S59.275,231.839,59.275,232.695z"/>
		<path style="fill:#D9D0C5;" d="M94.299,211.246c0,0.856-0.694,1.55-1.55,1.55c-0.856,0-1.55-0.694-1.55-1.55
			c0-0.856,0.694-1.55,1.55-1.55C93.605,209.696,94.299,210.39,94.299,211.246z"/>
		<path style="fill:#D9D0C5;" d="M103.957,232.853c0,0.856-0.694,1.55-1.55,1.55c-0.856,0-1.55-0.694-1.55-1.55
			s0.694-1.55,1.55-1.55C103.263,231.303,103.957,231.997,103.957,232.853z"/>
		<path style="fill:#D9D0C5;" d="M90.34,245.091c0,0.856-0.694,1.55-1.55,1.55c-0.856,0-1.55-0.694-1.55-1.55
			c0-0.856,0.694-1.55,1.55-1.55C89.646,243.541,90.34,244.235,90.34,245.091z"/>
		<path style="fill:#D9D0C5;" d="M71.477,208.146c0,0.856-0.694,1.55-1.55,1.55c-0.856,0-1.55-0.694-1.55-1.55
			c0-0.856,0.694-1.55,1.55-1.55C70.784,206.596,71.477,207.29,71.477,208.146z"/>
		<path style="fill:#D9D0C5;" d="M80.583,250.307c0,0.856-0.694,1.55-1.55,1.55c-0.856,0-1.55-0.694-1.55-1.55
			c0-0.856,0.694-1.55,1.55-1.55C79.889,248.758,80.583,249.452,80.583,250.307z"/>
		<path style="fill:#D9D0C5;" d="M102.407,215.187c0,0.856-0.694,1.55-1.55,1.55s-1.55-0.694-1.55-1.55
			c0-0.856,0.694-1.55,1.55-1.55S102.407,214.331,102.407,215.187z"/>
		<path style="fill:#D9D0C5;" d="M87.235,263.426c0,0.856-0.694,1.55-1.55,1.55c-0.856,0-1.55-0.694-1.55-1.55s0.694-1.55,1.55-1.55
			C86.541,261.876,87.235,262.57,87.235,263.426z"/>
		<path style="fill:#D9D0C5;" d="M59.275,270.722c0,0.856-0.694,1.55-1.55,1.55s-1.55-0.694-1.55-1.55c0-0.856,0.694-1.55,1.55-1.55
			S59.275,269.866,59.275,270.722z"/>
		<path style="fill:#D9D0C5;" d="M68.377,222.498c0,0.856-0.694,1.55-1.55,1.55c-0.856,0-1.55-0.694-1.55-1.55
			c0-0.856,0.694-1.55,1.55-1.55C67.684,220.948,68.377,221.642,68.377,222.498z"/>
		<path style="fill:#D9D0C5;" d="M80.583,216.736c0,0.856-0.694,1.55-1.55,1.55c-0.856,0-1.55-0.694-1.55-1.55
			c0-0.856,0.694-1.55,1.55-1.55C79.889,215.187,80.583,215.88,80.583,216.736z"/>
		<path style="fill:#D9D0C5;" d="M68.377,256.976c0,0.856-0.694,1.55-1.55,1.55c-0.856,0-1.55-0.694-1.55-1.55
			c0-0.856,0.694-1.55,1.55-1.55C67.684,255.426,68.377,256.12,68.377,256.976z"/>
		<path style="fill:#D9D0C5;" d="M73.027,272.668c0,0.856-0.694,1.55-1.55,1.55c-0.856,0-1.55-0.694-1.55-1.55
			c0-0.856,0.694-1.55,1.55-1.55C72.333,271.118,73.027,271.812,73.027,272.668z"/>
	</g>
	<path style="fill:none;stroke:#DA9872;stroke-width:0.5;stroke-linecap:round;stroke-linejoin:round;stroke-miterlimit:10;" d="
		M112.773,302.499c4.993-0.935,13.387-3.965,18.197-5.6"/>
	<path style="fill:#FFFFFF;stroke:#333333;stroke-width:0.5;stroke-linecap:round;stroke-linejoin:round;stroke-miterlimit:10;" d="
		M265.238,158.994c1.585,0.558,3.313,0.705,4.97,0.423c0.518-0.088,1.048-0.218,1.56-0.102c0.512,0.116,0.994,0.579,0.918,1.098
		c-0.08,0.544-0.675,0.827-1.193,1.011c-2.449,0.867-4.955,1.571-7.497,2.104"/>
	<g>
		<path style="fill:#333333;" d="M257.941,341.414v8.252c0,9.347,7.577,16.925,16.924,16.925h0c9.347,0,16.924-7.577,16.924-16.925
			v-8.252H257.941z"/>
		<g>
			<path style="fill:none;stroke:#333333;stroke-width:0.5;stroke-linecap:round;stroke-linejoin:round;stroke-miterlimit:10;" d="
				M251.433,402.026l12.144-36.243h24.76l12.382,36.214c1.242,4.552-2.284,8.413-6.702,8.413h-35.877
				C253.736,410.41,250,406.635,251.433,402.026z"/>
			<rect x="251.391" y="362.502" style="fill:#DA9872;" width="49.307" height="4.993"/>
			
				<line style="fill:none;stroke:#333333;stroke-width:0.5;stroke-linecap:round;stroke-linejoin:round;stroke-miterlimit:10;" x1="259.002" y1="379.438" x2="293.007" y2="379.438"/>
			
				<line style="fill:none;stroke:#333333;stroke-width:0.5;stroke-linecap:round;stroke-linejoin:round;stroke-miterlimit:10;" x1="257.558" y1="383.19" x2="294.266" y2="383.19"/>
		</g>
		<path style="fill:#D9D0C5;" d="M279.132,355.503c0.422,0.885,0.817,1.806,1.018,2.759c0.08,0.376,0.61,0.424,0.759,0.07
			c0.837-1.98,1.117-4.192,0.98-6.347c-0.154-2.429-0.811-4.799-1.664-7.082c-0.097-0.26,0.093-0.545,0.37-0.545
			c3.362,0.006,6.292,1.288,8.893,3.371c1.296,1.039,3.959,3.131,5.281,5.198c0.226,0.353,0.76,0.185,0.738-0.234
			c-0.211-3.908-1.21-8.677-4.713-10.345c-0.358-0.171-0.312-0.682,0.076-0.765c6.855-1.477,14.436,0.92,19.213,6.048
			c0.285,0.306,0.789,0.022,0.675-0.381c-1.595-5.649-5.361-10.763-10.646-13.274c-5.466-2.598-12.503-1.975-17.031,1.971
			c-0.282,0.246-0.709-0.011-0.648-0.381c0.628-3.842,2.852-7.406,6.026-9.66c0.318-0.226,0.145-0.73-0.246-0.725
			c-5.361,0.076-9.767,3.955-12.167,8.607c-0.169,0.327-0.667,0.262-0.741-0.099c-1.102-5.394-0.103-11.194,2.721-15.918
			c0.221-0.37-0.217-0.786-0.566-0.533c-4.685,3.405-7.614,9.158-7.568,14.954c0.003,0.379-0.471,0.534-0.71,0.24
			c-5.183-6.378-13.166-10.172-21.303-7.046c-5.446,2.092-9.703,6.653-12.317,11.869c-2.083,4.156-3.211,8.712-3.84,13.332
			c-0.064,0.468,0.583,0.646,0.759,0.208c1.8-4.481,4.544-8.593,8.339-11.543c4.089-3.178,9.491-4.842,14.56-4.034
			c0.449,0.072,0.463,0.699,0.017,0.789c-4.165,0.84-7.844,3.87-9.906,7.649c-2.436,4.464-2.866,9.798-2.202,14.839
			c-0.514-3.904,3.862-9.25,6.485-11.629c2.354-2.134,8.185-6.109,11.793-5.344c0.306,0.065,0.422,0.442,0.21,0.671
			c-1.872,2.02-3.527,3.911-4.354,6.687c-0.695,2.333-0.765,4.846-0.219,7.217c0.091,0.395,0.673,0.411,0.777,0.019
			c0.49-1.857,1.503-3.579,2.753-5.051c1.154-1.359,2.426-2.644,3.871-3.694c1.409-1.024,2.928-1.516,4.486-2.155
			c0.256-0.105,0.546,0.069,0.562,0.345c0.178,3.038-0.031,6.085-0.302,9.122c-0.038,0.422,0.524,0.603,0.743,0.24
			c1.614-2.673,3.094-5.46,3.542-8.53c-0.034,0.233,1.014,1.701,1.181,1.986c0.401,0.684,0.92,1.269,1.367,1.939
			C277.289,351.974,278.276,353.708,279.132,355.503z"/>
		<path style="fill:none;stroke:#333333;stroke-width:0.5;stroke-linecap:round;stroke-linejoin:round;stroke-miterlimit:10;" d="
			M261.563,342.215c2.154-1.899,5.129-2.832,7.982-2.502"/>
		<path style="fill:none;stroke:#333333;stroke-width:0.5;stroke-linecap:round;stroke-linejoin:round;stroke-miterlimit:10;" d="
			M280.348,344.617c-0.48-1.574-1.857-2.839-3.466-3.183"/>
		<path style="fill:none;stroke:#333333;stroke-width:0.5;stroke-linecap:round;stroke-linejoin:round;stroke-miterlimit:10;" d="
			M275.814,334.299c-0.664,1.18-1.013,2.536-1,3.89"/>
		<path style="fill:none;stroke:#333333;stroke-width:0.5;stroke-linecap:round;stroke-linejoin:round;stroke-miterlimit:10;" d="
			M255.105,335.765c2.73-0.402,8.851,0.479,11.757,2.467"/>
	</g>
	<path style="fill:#333333;" d="M297.691,230.295c-1.798-0.788-3.662-0.461-5.415,0.216v-3.51h-18v20.897h18v-3.615
		c0.819,0.401,1.69,0.677,2.603,0.771c2.249,0.229,4.373-0.867,5.384-2.904C302.111,238.431,302.093,232.225,297.691,230.295z
		 M298.676,240.835c-0.653,1.595-2.044,2.431-3.765,2.223c-0.954-0.116-1.839-0.552-2.635-1.072v-9.329
		c1.248-0.586,2.613-1.048,3.933-0.756c1.637,0.362,2.675,1.825,3.04,3.388C299.663,237.059,299.361,239.162,298.676,240.835z"/>
</g>
</svg>
